<!-- Generated by IcoMoon.io -->
<svg version="1.1" xmlns="http://www.w3.org/2000/svg" width="20" height="20" viewBox="0 0 20 20">
<title>edit-point-white-20</title>
<path fill="#000" d="M14.507 2.21c2.705 1.586 4.493 4.479 4.493 7.79 0 1.66-0.449 3.214-1.233 4.549-1.563 2.663-4.456 4.451-7.767 4.451-1.659 0-3.214-0.449-4.549-1.232-2.663-1.563-4.451-4.456-4.451-7.768 0-1.659 0.449-3.213 1.232-4.548 1.563-2.664 4.457-4.452 7.768-4.452 1.659 0 3.213 0.449 4.547 1.232z"></path>
<path fill="#fff" d="M13.005 4.807c1.803 1.057 2.995 2.986 2.995 5.193 0 1.106-0.299 2.143-0.822 3.033-1.042 1.775-2.971 2.967-5.178 2.967-1.106 0-2.143-0.299-3.032-0.822-1.776-1.042-2.968-2.971-2.968-5.178 0-1.106 0.299-2.142 0.821-3.032 1.042-1.776 2.971-2.968 5.179-2.968 1.106 0 2.142 0.299 3.032 0.821z"></path>
<path fill="#000" d="M11.502 7.403c0.902 0.529 1.498 1.493 1.498 2.597 0 0.553-0.15 1.071-0.411 1.516-0.521 0.888-1.485 1.484-2.589 1.484-0.553 0-1.071-0.15-1.516-0.411-0.888-0.521-1.484-1.485-1.484-2.589 0-0.553 0.15-1.071 0.411-1.516 0.521-0.888 1.486-1.484 2.589-1.484 0.553 0 1.071 0.15 1.516 0.411z"></path>
</svg>
