<!-- Generated by IcoMoon.io -->
<svg version="1.1" xmlns="http://www.w3.org/2000/svg" width="20" height="20" viewBox="0 0 20 20">
<title>opencms-iconfont-20</title>
<path fill="#b31b34" d="M14.507 2.21c2.705 1.586 4.493 4.479 4.493 7.79 0 1.66-0.449 3.214-1.233 4.549l0.023-0.042c-1.586 2.705-4.479 4.493-7.79 4.493-1.659 0-3.214-0.449-4.549-1.232l0.042 0.023c-2.706-1.586-4.494-4.479-4.494-7.791 0-1.659 0.449-3.213 1.232-4.548l-0.023 0.042c1.586-2.706 4.48-4.494 7.791-4.494 1.659 0 3.213 0.449 4.547 1.232l-0.042-0.023z"></path>
<path fill="#fff" d="M13.005 4.807c1.803 1.057 2.995 2.986 2.995 5.193 0 1.106-0.299 2.143-0.822 3.033l0.015-0.028c-1.057 1.804-2.986 2.995-5.194 2.995-1.106 0-2.143-0.299-3.032-0.822l0.028 0.015c-1.804-1.057-2.996-2.986-2.996-5.194 0-1.106 0.299-2.142 0.821-3.032l-0.015 0.028c1.057-1.804 2.986-2.996 5.194-2.996 1.106 0 2.142 0.299 3.032 0.821l-0.028-0.015z"></path>
<path fill="#000" d="M11.502 7.403c0.902 0.529 1.498 1.493 1.498 2.597 0 0.553-0.15 1.071-0.411 1.516l0.008-0.014c-0.529 0.902-1.493 1.498-2.597 1.498-0.553 0-1.071-0.15-1.516-0.411l0.014 0.008c-0.902-0.529-1.498-1.493-1.498-2.597 0-0.553 0.15-1.071 0.411-1.516l-0.008 0.014c0.529-0.902 1.493-1.498 2.597-1.498 0.553 0 1.071 0.15 1.516 0.411l-0.014-0.008z"></path>
<path fill="#b31b34" d="M11.502 7.403c0.902 0.529 1.498 1.493 1.498 2.597 0 0.553-0.15 1.071-0.411 1.516l0.008-0.014c-0.529 0.902-1.493 1.498-2.597 1.498-0.553 0-1.071-0.15-1.516-0.411l0.014 0.008c-0.902-0.529-1.498-1.493-1.498-2.597 0-0.553 0.15-1.071 0.411-1.516l-0.008 0.014c0.529-0.902 1.493-1.498 2.597-1.498 0.553 0 1.071 0.15 1.516 0.411l-0.014-0.008z"></path>
</svg>
