<!-- Generated by IcoMoon.io -->
<svg version="1.1" xmlns="http://www.w3.org/2000/svg" width="24" height="24" viewBox="0 0 24 24">
<title>archive</title>
<path fill="#0d2c56" d="M2 1v22c0 0.5 0.5 1 1 1h18c0.494 0 1-0.5 1-1v-16l-7-7h-11.919c-0.581 0-1.080 0.5-1.080 1z"></path>
<path fill="#fff" d="M3 1v22h18v-17l-5-5z"></path>
<path fill="#0d2c56" d="M15 0v6c0 0.5 0.5 1 1 1h6z"></path>
<path fill="#fff" opacity="0.4" d="M2 1v22c0 0.5 0.5 1 1 1h18c0.494 0 1-0.5 1-1v-16l-7-7h-11.919c-0.581 0-1.080 0.5-1.080 1z"></path>
<path fill="#0d2c56" d="M7 0h3v1h-3v-1z"></path>
<path fill="#0d2c56" d="M10 1h3v1h-3v-1z"></path>
<path fill="#0d2c56" d="M7 2h3v1h-3v-1z"></path>
<path fill="#0d2c56" d="M10 3h3v1h-3v-1z"></path>
<path fill="#0d2c56" d="M7 4h3v1h-3v-1z"></path>
<path fill="#0d2c56" d="M10 5h3v1h-3v-1z"></path>
<path fill="#0d2c56" d="M7 6h3v1h-3v-1z"></path>
<path fill="#0d2c56" d="M10 7h3v1h-3v-1z"></path>
<path fill="#0d2c56" d="M7 8h3v1h-3v-1z"></path>
<path fill="#0d2c56" d="M10 9h3v1h-3v-1z"></path>
<path fill="#0d2c56" d="M7 10h3v1h-3v-1z"></path>
<path fill="#0d2c56" d="M10 11h3v1h-3v-1z"></path>
<path fill="#0d2c56" d="M7 12v1c0.113 2.041-0.219 4.041-1 6 2.626 1.328 5.292 1.355 8 0-0.742-1.877-1.070-3.879-1-6h-3v-1zM10 16c1.105 0 2 0.448 2 1v0c0 0.552-0.895 1-2 1v0c-1.105 0-2-0.448-2-1v0c0-0.552 0.895-1 2-1v0z"></path>
</svg>
