<!-- Generated by IcoMoon.io -->
<svg version="1.1" xmlns="http://www.w3.org/2000/svg" width="24" height="24" viewBox="0 0 24 24">
<title>audio</title>
<path fill="#0d2c56" d="M2 1v22c0 0.5 0.5 1 1 1h18c0.494 0 1-0.5 1-1v-16l-7-7h-11.919c-0.581 0-1.080 0.5-1.080 1z"></path>
<path fill="#fff" d="M3 1v22h18v-17l-5-5z"></path>
<path fill="#0d2c56" d="M15 0v6c0 0.5 0.5 1 1 1h6z"></path>
<path fill="#fff" opacity="0.4" d="M2 1v22c0 0.5 0.5 1 1 1h18c0.494 0 1-0.5 1-1v-16l-7-7h-11.919c-0.581 0-1.080 0.5-1.080 1z"></path>
<path fill="#0d2c56" d="M9 11.005h1v8.5h-1v-8.5z"></path>
<path fill="#0d2c56" d="M15 9.755h1v7.75h-1v-7.75z"></path>
<path fill="#0d2c56" d="M15.002 16.206c0.601 0.264 0.998 0.747 0.998 1.298 0 0.277-0.1 0.536-0.274 0.758l0.005-0.007c-0.352 0.451-0.995 0.749-1.731 0.749-0.369 0-0.714-0.075-1.011-0.205l0.009 0.004c-0.601-0.264-0.999-0.747-0.999-1.298 0-0.277 0.1-0.536 0.274-0.758l-0.005 0.007c0.352-0.451 0.995-0.749 1.731-0.749 0.369 0 0.714 0.075 1.011 0.205l-0.009-0.004z"></path>
<path fill="#0d2c56" d="M9.002 18.206c0.601 0.264 0.998 0.747 0.998 1.298 0 0.277-0.1 0.536-0.274 0.758l0.005-0.007c-0.352 0.451-0.995 0.749-1.731 0.749-0.369 0-0.714-0.075-1.011-0.205l0.009 0.004c-0.601-0.264-0.999-0.747-0.999-1.298 0-0.277 0.1-0.536 0.274-0.758l-0.005 0.007c0.352-0.451 0.995-0.749 1.731-0.749 0.369 0 0.714 0.075 1.011 0.205l-0.009-0.004z"></path>
<path fill="#0d2c56" d="M9 11l7-1.995v1.995l-7 2.005z"></path>
</svg>
