<!-- Generated by IcoMoon.io -->
<svg version="1.1" xmlns="http://www.w3.org/2000/svg" width="24" height="24" viewBox="0 0 24 24">
<title>font</title>
<path fill="#0d2c56" d="M2 1v22c0 0.5 0.5 1 1 1h18c0.494 0 1-0.5 1-1v-16l-7-7h-11.919c-0.581 0-1.080 0.5-1.080 1z"></path>
<path fill="#fff" d="M3 1v22h18v-17l-5-5z"></path>
<path fill="#0d2c56" d="M15 0v6c0 0.5 0.5 1 1 1h6z"></path>
<path fill="#fff" opacity="0.4" d="M2 1v22c0 0.5 0.5 1 1 1h18c0.494 0 1-0.5 1-1v-16l-7-7h-11.919c-0.581 0-1.080 0.5-1.080 1z"></path>
<path fill="#0d2c56" d="M7.024 14l0.014 5.12c0.002 0.899-0.213 1.275-1.058 1.357l-0.48 0.033v0.49h5v-0.49l-0.48-0.033c-0.845-0.082-1-0.458-1.006-1.357l-0.014-5.12h2v-0.5h-2l0.014-2.162c0.004-0.621 0.134-0.981 0.442-1.259 0.269-0.229 0.548-0.308 0.875-0.308s0.615 0.163 0.903 0.474c0.269 0.311 0.538 0.458 0.883 0.458 0.461 0 0.883-0.327 0.883-0.703 0-0.54-0.809-1-1.75-1-1.114 0-2.33 0.376-3.156 0.965-0.787 0.54-1.056 1.144-1.056 2.338l-0.014 1.198h-1.024v0.5z"></path>
<path fill="#0d2c56" d="M16.014 13h-1.014c-1.172 0.18-1.982 0.444-3 0.51v0.49l0.384 0.033c0.999 0.082 1.616 0.264 1.616 1.245v3.722c0 0.899-0.175 1.395-1.020 1.477l-0.48 0.033v0.49h5v-0.49l-0.461-0.033c-0.864-0.082-1.025-0.578-1.025-1.477z"></path>
<path fill="#0d2c56" d="M15.501 10.213c0.301 0.169 0.499 0.477 0.499 0.829 0 0.177-0.050 0.342-0.137 0.484l0.003-0.005c-0.176 0.288-0.498 0.478-0.866 0.478-0.184 0-0.357-0.048-0.505-0.131l0.005 0.002c-0.301-0.169-0.499-0.477-0.499-0.829 0-0.177 0.050-0.342 0.137-0.484l-0.003 0.005c0.176-0.288 0.498-0.478 0.866-0.478 0.184 0 0.357 0.048 0.505 0.131l-0.005-0.002z"></path>
</svg>
