<!-- Generated by IcoMoon.io -->
<svg version="1.1" xmlns="http://www.w3.org/2000/svg" width="24" height="24" viewBox="0 0 24 24">
<title>formatter_config</title>
<path fill="#b31b34" d="M3 0h18c0.552 0 1 0.448 1 1v22c0 0.552-0.448 1-1 1h-18c-0.552 0-1-0.448-1-1v-22c0-0.552 0.448-1 1-1z"></path>
<path fill="#fff" d="M3 1h18v22h-18v-22z"></path>
<path fill="#fff" opacity="0.4" d="M3 0h18c0.552 0 1 0.448 1 1v22c0 0.552-0.448 1-1 1h-18c-0.552 0-1-0.448-1-1v-22c0-0.552 0.448-1 1-1z"></path>
<path fill="#b31b34" opacity="0.1" d="M3 1h18v22h-18v-22z"></path>
<path fill="#0d2c56" d="M15.725 19.5c0.025-0.5 0.275-0.75 0.757-0.756 0.518 0.006 0.768 0.256 0.757 0.756 0.011 0.5-0.239 0.75-0.757 0.756-0.482-0.007-0.732-0.257-0.757-0.756zM11.023 16.311l5.403 5.396c0.195 0.195 0.433 0.293 0.713 0.293 0.275 0 0.515-0.098 0.721-0.293l0.84-0.855c0.201-0.19 0.301-0.427 0.301-0.712 0-0.28-0.1-0.52-0.301-0.72l-5.395-5.388c-0.206 0.517-0.508 0.975-0.907 1.373s-0.857 0.7-1.374 0.906zM6 12.869c0 0.206 0.061 0.485 0.182 0.839 0.248 0.707 0.683 1.28 1.303 1.721s1.303 0.661 2.048 0.661c0.977 0 1.813-0.347 2.507-1.040s1.042-1.528 1.042-2.504c0-0.976-0.347-1.811-1.042-2.504s-1.53-1.040-2.507-1.040c-0.306 0-0.627 0.044-0.963 0.131s-0.619 0.21-0.852 0.368c-0.084 0.058-0.127 0.132-0.127 0.222s0.042 0.164 0.127 0.222l2.281 1.308v1.75l-1.489 0.898c-0.026-0.016-0.235-0.144-0.626-0.384s-0.749-0.454-1.073-0.641c-0.325-0.187-0.511-0.281-0.558-0.281-0.079 0-0.141 0.026-0.186 0.079s-0.067 0.119-0.067 0.198z"></path>
</svg>
