<!-- Generated by IcoMoon.io -->
<svg version="1.1" xmlns="http://www.w3.org/2000/svg" width="24" height="24" viewBox="0 0 24 24">
<title>htmlgallery</title>
<path fill="#ffc61e" d="M10 4h12.971c0.529 0 1.029 0.5 1.029 1v15.999c0 0.501-0.5 1.001-1 1.001h-21.991c-0.509 0-1.009-0.5-1.009-1v-19c0-0.5 0.5-1 1-1h6z"></path>
<path fill="#fdf9ae" d="M1 6h22v15h-22v-15z"></path>
<path fill="#0d2c56" d="M13.5 17.35l1.5 1.65 5-5.5-5-5.5-1.5 1.65 3.5 3.85z"></path>
<path fill="#0d2c56" d="M10.5 9.65l-1.5-1.65-5 5.5 5 5.5 1.5-1.65-3.5-3.85z"></path>
</svg>
