<!-- Generated by IcoMoon.io -->
<svg version="1.1" xmlns="http://www.w3.org/2000/svg" width="24" height="24" viewBox="0 0 24 24">
<title>image</title>
<path fill="#0d2c56" d="M1 2h22c0.552 0 1 0.448 1 1v18c0 0.552-0.448 1-1 1h-22c-0.552 0-1-0.448-1-1v-18c0-0.552 0.448-1 1-1z"></path>
<path fill="#2197db" d="M1 21v-18h22v18z"></path>
<path fill="#fff" opacity="0.6" d="M1 3h22v18h-22v-18z"></path>
<path fill="#fdf9ae" d="M7.502 5.403c0.902 0.529 1.498 1.493 1.498 2.597 0 0.553-0.15 1.071-0.411 1.516l0.008-0.014c-0.529 0.902-1.493 1.498-2.597 1.498-0.553 0-1.071-0.15-1.516-0.411l0.014 0.008c-0.902-0.529-1.498-1.493-1.498-2.597 0-0.553 0.15-1.071 0.411-1.516l-0.008 0.014c0.529-0.902 1.493-1.498 2.597-1.498 0.553 0 1.071 0.15 1.516 0.411l-0.014-0.008z"></path>
<path fill="#0d2c56" d="M1 21h22v-6l-6-7-7 8-4-2-5 5z"></path>
</svg>
