<!-- Generated by IcoMoon.io -->
<svg version="1.1" xmlns="http://www.w3.org/2000/svg" width="24" height="24" viewBox="0 0 24 24">
<title>imagegallery</title>
<path fill="#ffc61e" d="M10 4h12.971c0.529 0 1.029 0.5 1.029 1v15.999c0 0.501-0.5 1.001-1 1.001h-21.991c-0.509 0-1.009-0.5-1.009-1v-19c0-0.5 0.5-1 1-1h6z"></path>
<path fill="#fdf9ae" d="M1 6h22v15h-22v-15z"></path>
<path fill="#2197db" d="M5.059 8h13.883c0.585 0 1.059 0.474 1.059 1.059v9.882c0 0.585-0.474 1.059-1.059 1.059h-13.883c-0.585 0-1.059-0.474-1.059-1.059v-9.882c0-0.585 0.474-1.059 1.059-1.059z"></path>
<path fill="#fff" opacity="0.6" d="M5.059 8h13.883c0.585 0 1.059 0.474 1.059 1.059v9.882c0 0.585-0.474 1.059-1.059 1.059h-13.883c-0.585 0-1.059-0.474-1.059-1.059v-9.882c0-0.585 0.474-1.059 1.059-1.059z"></path>
<path fill="#fdf9ae" d="M9.002 9.269c0.601 0.352 0.998 0.995 0.998 1.731 0 0.369-0.1 0.714-0.274 1.011l0.005-0.009c-0.352 0.601-0.995 0.998-1.731 0.998-0.369 0-0.714-0.1-1.011-0.274l0.009 0.005c-0.601-0.352-0.999-0.995-0.999-1.731 0-0.369 0.1-0.714 0.274-1.011l-0.005 0.009c0.352-0.601 0.995-0.999 1.731-0.999 0.369 0 0.714 0.1 1.011 0.274l-0.009-0.005z"></path>
<path fill="#0d2c56" d="M4 18v1c0 0.5 0.5 1 1 1h14c0.5 0 1-0.5 1-1v-4l-4-4-5 5-3-2z"></path>
</svg>
