<!-- Generated by IcoMoon.io -->
<svg version="1.1" xmlns="http://www.w3.org/2000/svg" width="24" height="24" viewBox="0 0 24 24">
<title>java</title>
<path fill="#0d2c56" d="M2 1v22c0 0.5 0.5 1 1 1h18c0.494 0 1-0.5 1-1v-16l-7-7h-11.919c-0.581 0-1.080 0.5-1.080 1z"></path>
<path fill="#fff" d="M3 1v22h18v-17l-5-5z"></path>
<path fill="#0d2c56" d="M15 0v6c0 0.5 0.5 1 1 1h6z"></path>
<path fill="#fff" opacity="0.4" d="M2 1v22c0 0.5 0.5 1 1 1h18c0.494 0 1-0.5 1-1v-16l-7-7h-11.919c-0.581 0-1.080 0.5-1.080 1z"></path>
<path fill="#0d2c56" d="M9.346 17.24c0 0-0.7 0.467 0.498 0.625 1.451 0.19 2.192 0.162 3.791-0.185 0 0 0.419 0.302 1.007 0.564-3.583 1.762-8.111-0.102-5.296-1.005zM8.908 14.941c0 0-0.785 0.667 0.414 0.809 1.549 0.183 2.773 0.198 4.89-0.27 0 0 0.294 0.341 0.755 0.526-4.332 1.455-9.16 0.115-6.059-1.066z"></path>
<path fill="#b31b34" d="M11.6 11.041c0.883 1.166-0.232 2.215-0.232 2.215s2.242-1.327 1.212-2.99c-0.962-1.545-1.702-2.321 2.29-4.975 0 0-6.267 1.794-3.276 5.751z"></path>
<path fill="#0d2c56" d="M17.34 18.941c0 0 0.518 0.489-0.57 0.868-2.069 0.719-8.611 0.936-10.426 0.028-0.654-0.325 0.571-0.778 0.956-0.873 0.405-0.101 0.632-0.082 0.632-0.082-0.725-0.587-4.693 1.152-2.013 1.651 7.308 1.362 13.323-0.611 11.428-1.591zM9.682 12.558c0 0-3.327 0.906-1.178 1.236 0.908 0.139 2.716 0.108 4.402-0.054 1.377-0.135 2.759-0.419 2.759-0.419s-0.486 0.239-0.837 0.515c-3.379 1.019-9.906 0.545-8.027-0.498 1.589-0.881 2.882-0.781 2.882-0.781zM15.654 16.383c3.434-2.046 1.85-4.013 0.74-3.749-0.271 0.065-0.39 0.121-0.39 0.121s0.101-0.181 0.294-0.26c2.194-0.883 3.88 2.609-0.707 3.993 0 0 0.054-0.054 0.069-0.103z"></path>
<path fill="#b31b34" d="M12.581 1c0 0 1.902 2.183-1.805 5.539-2.972 2.693-0.678 4.228-0.001 5.982-1.732-1.795-3.005-3.376-2.151-4.847 1.253-2.159 4.727-3.206 3.962-6.673z"></path>
<path fill="#0d2c56" d="M10.020 21.934c3.296 0.242 8.36-0.135 8.48-1.924 0 0-0.232 0.679-2.729 1.217-2.818 0.608-6.286 0.538-8.344 0.147 0 0 0.419 0.401 2.586 0.56z"></path>
</svg>
