<!-- Generated by IcoMoon.io -->
<svg version="1.1" xmlns="http://www.w3.org/2000/svg" width="24" height="24" viewBox="0 0 24 24">
<title>modelpage</title>
<path fill="#0d2c56" d="M3 0h18c0.552 0 1 0.448 1 1v22c0 0.552-0.448 1-1 1h-18c-0.552 0-1-0.448-1-1v-22c0-0.552 0.448-1 1-1z"></path>
<path fill="#fff" d="M3 1h18v22h-18v-22z"></path>
<path fill="#fff" opacity="0.4" d="M3 0h18c0.552 0 1 0.448 1 1v22c0 0.552-0.448 1-1 1h-18c-0.552 0-1-0.448-1-1v-22c0-0.552 0.448-1 1-1z"></path>
<path fill="#b31b34" d="M6 17h12v4h-12v-4z"></path>
<path fill="#a8adb4" d="M6 4h12v4h-12v-4z"></path>
<path fill="#b31b34" d="M13 10h5v5h-5v-5z"></path>
<path fill="#a8adb4" d="M6 10h5v5h-5v-5z"></path>
</svg>
