<!-- Generated by IcoMoon.io -->
<svg version="1.1" xmlns="http://www.w3.org/2000/svg" width="24" height="24" viewBox="0 0 24 24">
<title>modelgroup_copy</title>
<path fill="#fff" d="M2 1h20c0.552 0 1 0.448 1 1v20c0 0.552-0.448 1-1 1h-20c-0.552 0-1-0.448-1-1v-20c0-0.552 0.448-1 1-1z"></path>
<path fill="#0d2c56" d="M1 2h1v2h-1v-2z"></path>
<path fill="#0d2c56" d="M1 5h1v2h-1v-2z"></path>
<path fill="#0d2c56" d="M1 8h1v2h-1v-2z"></path>
<path fill="#0d2c56" d="M1 11h1v2h-1v-2z"></path>
<path fill="#0d2c56" d="M1 14h1v2h-1v-2z"></path>
<path fill="#0d2c56" d="M1 17h1v2h-1v-2z"></path>
<path fill="#0d2c56" d="M1 20h1v2h-1v-2z"></path>
<path fill="#0d2c56" d="M2 1h2v1h-2v-1z"></path>
<path fill="#0d2c56" d="M5 1h2v1h-2v-1z"></path>
<path fill="#0d2c56" d="M8 1h2v1h-2v-1z"></path>
<path fill="#0d2c56" d="M11 1h2v1h-2v-1z"></path>
<path fill="#0d2c56" d="M14 1h2v1h-2v-1z"></path>
<path fill="#0d2c56" d="M17 1h2v1h-2v-1z"></path>
<path fill="#0d2c56" d="M20 1h2v1h-2v-1z"></path>
<path fill="#0d2c56" d="M22 2h1v2h-1v-2z"></path>
<path fill="#0d2c56" d="M22 5h1v2h-1v-2z"></path>
<path fill="#0d2c56" d="M22 8h1v2h-1v-2z"></path>
<path fill="#0d2c56" d="M22 11h1v2h-1v-2z"></path>
<path fill="#0d2c56" d="M22 14h1v2h-1v-2z"></path>
<path fill="#0d2c56" d="M22 17h1v2h-1v-2z"></path>
<path fill="#0d2c56" d="M22 20h1v2h-1v-2z"></path>
<path fill="#0d2c56" d="M20 22h2v1h-2v-1z"></path>
<path fill="#0d2c56" d="M17.117 22h2v1h-2v-1z"></path>
<path fill="#0d2c56" d="M14 22h2v1h-2v-1z"></path>
<path fill="#0d2c56" d="M11 22h2v1h-2v-1z"></path>
<path fill="#0d2c56" d="M8 22h2v1h-2v-1z"></path>
<path fill="#0d2c56" d="M5 22h2v1h-2v-1z"></path>
<path fill="#0d2c56" d="M2 22h2v1h-2v-1z"></path>
<path fill="#b31b34" d="M4 13h7v7h-7v-7z"></path>
<path fill="#a8adb4" d="M13 13h7v7h-7v-7z"></path>
<path fill="#b31b34" d="M13 4h7v7h-7v-7z"></path>
<path fill="#a8adb4" d="M4 4h7v7h-7v-7z"></path>
</svg>
