<!-- Generated by IcoMoon.io -->
<svg version="1.1" xmlns="http://www.w3.org/2000/svg" width="24" height="24" viewBox="0 0 24 24">
<title>module1</title>
<path fill="#0d2c56" d="M11.25 1.142l-10.5 4.369c-0.563 0.19-0.75 0.38-0.75 0.75v11.026c-0.002 0.509 0.188 0.95 0.75 1.14l10.5 4.369c0.563 0.19 0.938 0.19 1.5 0l10.5-4.369c0.563-0.19 0.75-0.57 0.75-1.14v-11.016c0-0.38-0.188-0.57-0.737-0.787l-10.513-4.341c-0.563-0.19-0.938-0.19-1.5 0z"></path>
<path fill="#fff" d="M2 7v9.75l9 3.609v-9.859z"></path>
<path fill="#fff" d="M13 10.5v9.876l9-3.626v-9.75z"></path>
<path fill="#fff" d="M4.25 6l7.75-3.366 7.75 3.366-7.75 3z"></path>
<path fill="#b31b34" d="M8 8.597l11.644-4.606-3.144-1.298-11.5 4.693v3.363l3 1.25z"></path>
</svg>
