<!-- Generated by IcoMoon.io -->
<svg version="1.1" xmlns="http://www.w3.org/2000/svg" width="24" height="24" viewBox="0 0 24 24">
<title>opencms-filetypes-24</title>
<path fill="#0d2c56" d="M1 2h22c0.552 0 1 0.448 1 1v18c0 0.552-0.448 1-1 1h-22c-0.552 0-1-0.448-1-1v-18c0-0.552 0.448-1 1-1z"></path>
<path fill="#fff" d="M1.5 3h21c0.276 0 0.5 0.224 0.5 0.5v17c0 0.276-0.224 0.5-0.5 0.5h-21c-0.276 0-0.5-0.224-0.5-0.5v-17c0-0.276 0.224-0.5 0.5-0.5z"></path>
<path fill="#b31b34" d="M3.4 6.75c-0.349 0.376-0.15 1.004 0.35 1.5l3.75 3.75-3.75 3.75c-0.5 0.496-0.572 1.052-0.25 1.4 0.341 0.369 0.9 0.35 1.5-0.15l4.445-4.515c0.312-0.3 0.312-0.786 0-1.086l-4.445-4.399c-0.5-0.496-1.233-0.646-1.6-0.25z"></path>
<path fill="#b31b34" d="M10.5 18h10c0.276 0 0.5 0.224 0.5 0.5s-0.224 0.5-0.5 0.5h-10c-0.276 0-0.5-0.224-0.5-0.5s0.224-0.5 0.5-0.5z"></path>
</svg>
