<!-- Generated by IcoMoon.io -->
<svg version="1.1" xmlns="http://www.w3.org/2000/svg" width="24" height="24" viewBox="0 0 24 24">
<title>orgunit</title>
<path fill="#ffc61e" d="M22.971 1c0.529 0 1.029 0.5 1.029 1v19.999c0 0.501-0.5 1.001-1 1.001h-21.991c-0.509 0-1.009-0.5-1.009-1v-20c0-0.5 0.5-1 1-1z"></path>
<path fill="#fdf9ae" d="M1 2h22v20h-22v-20z"></path>
<path fill="#7f8691" d="M18.94 4.028c-2.97 0-2.883 2.044-2.883 4.529 0 1.548 0.852 2.992 1.943 3.612v0.75c-0.829 0.068-1.553 0.231-2.174 0.467-0.177 1.054-0.631 2.026-1.311 2.76 0.847 0.191 1.592 0.483 2.222 0.872l6.263-0.018v-3.181c-0.773-0.43-1.771-0.798-3-0.899v-0.75c1.090-0.621 1.91-2.094 1.91-3.641 0-2.485-0-4.5-2.97-4.5z"></path>
<path fill="#7f8691" d="M4.94 4.006c-2.97 0-2.854 2.073-2.854 4.558 0 1.548 0.823 2.963 1.914 3.583v0.825c-1.229 0.101-2.227 0.4-3 0.835v3.193l6.41-0.018c0.597-0.344 1.291-0.606 2.072-0.783-0.689-0.737-1.155-1.716-1.329-2.784-0.616-0.222-1.333-0.375-2.154-0.443v-0.825c1.090-0.621 1.91-2.094 1.91-3.641 0-2.485-0-4.5-2.97-4.5z"></path>
<path fill="#b31b34" d="M13 17v-0.827c1.090-0.623 1.91-2.147 1.91-3.699 0-2.493 0-4.514-2.97-4.514s-2.864 2.048-2.864 4.541c0 1.553 0.834 3.050 1.924 3.673v0.827c-3.358 0.278-5 1.979-5 4h12c0-2.021-1.642-3.722-5-4z"></path>
</svg>
