<!-- Generated by IcoMoon.io -->
<svg version="1.1" xmlns="http://www.w3.org/2000/svg" width="24" height="24" viewBox="0 0 24 24">
<title>principal-overwrite</title>
<path fill="#b31b34" d="M18.010 1.613c3.607 2.115 5.99 5.972 5.99 10.387 0 2.213-0.599 4.286-1.644 6.066l0.031-0.056c-2.115 3.607-5.972 5.991-10.387 5.991-2.213 0-4.285-0.599-6.065-1.643l0.056 0.031c-3.607-2.115-5.992-5.973-5.992-10.387 0-2.212 0.599-4.285 1.643-6.064l-0.031 0.056c2.114-3.608 5.973-5.992 10.388-5.992 2.212 0 4.284 0.598 6.063 1.642l-0.057-0.031z"></path>
<path fill="#fff" d="M13 14h-2l-1-8h3.902z"></path>
<path fill="#fff" d="M12.75 16.202c0.451 0.264 0.748 0.747 0.748 1.298 0 0.277-0.075 0.536-0.205 0.758l0.004-0.007c-0.264 0.451-0.746 0.749-1.298 0.749-0.276 0-0.535-0.075-0.758-0.205l0.007 0.004c-0.451-0.264-0.749-0.747-0.749-1.298 0-0.277 0.075-0.536 0.205-0.758l-0.004 0.007c0.264-0.451 0.746-0.749 1.298-0.749 0.276 0 0.535 0.075 0.758 0.205l-0.007-0.004z"></path>
</svg>
