<!-- Generated by IcoMoon.io -->
<svg version="1.1" xmlns="http://www.w3.org/2000/svg" width="24" height="24" viewBox="0 0 24 24">
<title>subsitemap</title>
<path fill="#ffc61e" d="M10 4h12.971c0.529 0 1.029 0.5 1.029 1v15.999c0 0.501-0.5 1.001-1 1.001h-21.991c-0.509 0-1.009-0.5-1.009-1v-19c0-0.5 0.5-1 1-1h6z"></path>
<path fill="#fdf9ae" d="M1 6h22v15h-22v-15z"></path>
<path fill="#0d2c56" d="M10 16h8c0.5 0 1-0.5 1-1v-2c0-0.5-0.25-1-1-1h-8c-0.5 0-1 0.5-1 1h-1v-2h6c0.5 0 1-0.5 1-1v-2c0-0.5-0.5-1-1-1h-7.932c-0.568 0-1.068 0.5-1.068 1v2c0 0.5 0.5 1 1 1h1v8h2v1c0 0.5 0.537 1 1 1h8c0.5 0 1-0.5 1-1v-2c0-0.5-0.5-1-1-1h-8c-0.5 0-1 0.5-1 1h-1v-4h1v1c0 0.75 0.5 1 1 1z"></path>
<path fill="#fff" d="M6 8h2v2h-2v-2z"></path>
<path fill="#fff" d="M10 13h2v2h-2v-2z"></path>
<path fill="#fff" d="M10 18h2v2h-2v-2z"></path>
</svg>
