<!-- Generated by IcoMoon.io -->
<svg version="1.1" xmlns="http://www.w3.org/2000/svg" width="24" height="24" viewBox="0 0 24 24">
<title>tablegallery</title>
<path fill="#ffc61e" d="M10 4h12.971c0.529 0 1.029 0.5 1.029 1v15.999c0 0.501-0.5 1.001-1 1.001h-21.991c-0.509 0-1.009-0.5-1.009-1v-19c0-0.5 0.5-1 1-1h6z"></path>
<path fill="#fdf9ae" d="M1 6h22v15h-22v-15z"></path>
<path fill="#0d2c56" d="M6 7h13c0.552 0 1 0.448 1 1v11c0 0.552-0.448 1-1 1h-13c-0.552 0-1-0.448-1-1v-11c0-0.552 0.448-1 1-1z"></path>
<path fill="#fff" d="M6 8h6v3h-6v-3z"></path>
<path fill="#fff" d="M13 8h6v3h-6v-3z"></path>
<path fill="#fff" d="M13 12h6v3h-6v-3z"></path>
<path fill="#fff" d="M6 12h6v3h-6v-3z"></path>
<path fill="#fff" d="M13 16h6v3h-6v-3z"></path>
<path fill="#fff" d="M6 16h6v3h-6v-3z"></path>
</svg>
