<!-- Generated by IcoMoon.io -->
<svg version="1.1" xmlns="http://www.w3.org/2000/svg" width="24" height="24" viewBox="0 0 24 24">
<title>text</title>
<path fill="#0d2c56" d="M2 1v22c0 0.5 0.5 1 1 1h18c0.494 0 1-0.5 1-1v-16l-7-7h-11.919c-0.581 0-1.080 0.5-1.080 1z"></path>
<path fill="#fff" d="M3 1v22h18v-17l-5-5z"></path>
<path fill="#0d2c56" d="M15 0v6c0 0.5 0.5 1 1 1h6z"></path>
<path fill="#fff" opacity="0.4" d="M2 1v22c0 0.5 0.5 1 1 1h18c0.494 0 1-0.5 1-1v-16l-7-7h-11.919c-0.581 0-1.080 0.5-1.080 1z"></path>
<path fill="#a8adb4" d="M6.5 8h9c0.276 0 0.5 0.224 0.5 0.5s-0.224 0.5-0.5 0.5h-9c-0.276 0-0.5-0.224-0.5-0.5s0.224-0.5 0.5-0.5z"></path>
<path fill="#a8adb4" d="M6.5 10h11c0.276 0 0.5 0.224 0.5 0.5s-0.224 0.5-0.5 0.5h-11c-0.276 0-0.5-0.224-0.5-0.5s0.224-0.5 0.5-0.5z"></path>
<path fill="#a8adb4" d="M6.5 12h9c0.276 0 0.5 0.224 0.5 0.5s-0.224 0.5-0.5 0.5h-9c-0.276 0-0.5-0.224-0.5-0.5s0.224-0.5 0.5-0.5z"></path>
<path fill="#a8adb4" d="M6.5 14h7c0.276 0 0.5 0.224 0.5 0.5s-0.224 0.5-0.5 0.5h-7c-0.276 0-0.5-0.224-0.5-0.5s0.224-0.5 0.5-0.5z"></path>
<path fill="#a8adb4" d="M6.5 16h9c0.276 0 0.5 0.224 0.5 0.5s-0.224 0.5-0.5 0.5h-9c-0.276 0-0.5-0.224-0.5-0.5s0.224-0.5 0.5-0.5z"></path>
<path fill="#a8adb4" d="M6.5 18h11c0.276 0 0.5 0.224 0.5 0.5s-0.224 0.5-0.5 0.5h-11c-0.276 0-0.5-0.224-0.5-0.5s0.224-0.5 0.5-0.5z"></path>
<path fill="#a8adb4" d="M6.5 20h9c0.276 0 0.5 0.224 0.5 0.5s-0.224 0.5-0.5 0.5h-9c-0.276 0-0.5-0.224-0.5-0.5s0.224-0.5 0.5-0.5z"></path>
</svg>
