<!-- Generated by IcoMoon.io -->
<svg version="1.1" xmlns="http://www.w3.org/2000/svg" width="24" height="24" viewBox="0 0 24 24">
<title>xmlcontent</title>
<path fill="#0d2c56" d="M3 0h18c0.552 0 1 0.448 1 1v22c0 0.552-0.448 1-1 1h-18c-0.552 0-1-0.448-1-1v-22c0-0.552 0.448-1 1-1z"></path>
<path fill="#fff" d="M3 1h18v22h-18v-22z"></path>
<path fill="#fff" opacity="0.4" d="M3 0h18c0.552 0 1 0.448 1 1v22c0 0.552-0.448 1-1 1h-18c-0.552 0-1-0.448-1-1v-22c0-0.552 0.448-1 1-1z"></path>
<path fill="#0d2c56" d="M14.5 19.2l1.269 1.8 4.231-6-4.231-6-1.269 1.8 2.962 4.2z"></path>
<path fill="#0d2c56" d="M9.5 10.8l-1.269-1.8-4.231 6 4.231 6 1.269-1.8-2.962-4.2z"></path>
<path fill="#0d2c56" d="M11.766 9l1.984 0.249-1.516 11.751-1.984-0.249 1.516-11.751z"></path>
</svg>
