<!-- Generated by IcoMoon.io -->
<svg version="1.1" xmlns="http://www.w3.org/2000/svg" width="32" height="32" viewBox="0 0 32 32">
<title>edit-point1</title>
<path fill="#b31b34" d="M32 16c0 8.837-7.163 16-16 16s-16-7.163-16-16c0-8.837 7.163-16 16-16s16 7.163 16 16z"></path>
<path fill="#fff" d="M26.5 16c0 5.799-4.701 10.5-10.5 10.5s-10.5-4.701-10.5-10.5c0-5.799 4.701-10.5 10.5-10.5s10.5 4.701 10.5 10.5z"></path>
<path fill="#144382" d="M18.504 11.672c1.503 0.881 2.496 2.488 2.496 4.328 0 0.922-0.25 1.786-0.685 2.527l0.013-0.024c-0.881 1.503-2.489 2.496-4.328 2.496-0.922 0-1.786-0.25-2.527-0.685l0.024 0.013c-1.503-0.881-2.497-2.489-2.497-4.328 0-0.922 0.249-1.785 0.684-2.527l-0.013 0.024c0.881-1.503 2.489-2.497 4.328-2.497 0.922 0 1.785 0.249 2.526 0.684l-0.024-0.013z"></path>
</svg>
