<!-- Generated by IcoMoon.io -->
<svg version="1.1" xmlns="http://www.w3.org/2000/svg" width="32" height="32" viewBox="0 0 32 32">
<title>history1</title>
<path fill="#fff" d="M4 7.25h24v3.75h-24v-3.75z"></path>
<path fill="#0d2c56" d="M4 10h24v16c0 1-1 2-2 2h-20c-1 0-2-1-2-2z"></path>
<path fill="#b31b34" d="M2 6c0-1 1-2 2-2h24c1 0 2 1 2 2v2h-28z"></path>
<path fill="#fff" d="M11.971 13.029h8.059c0.536 0 0.971 0.435 0.971 0.971v1.114c0 0.536-0.435 0.971-0.971 0.971h-8.059c-0.536 0-0.971-0.435-0.971-0.971v-1.114c0-0.536 0.435-0.971 0.971-0.971z"></path>
</svg>
