<!-- Generated by IcoMoon.io -->
<svg version="1.1" xmlns="http://www.w3.org/2000/svg" width="32" height="32" viewBox="0 0 32 32">
<title>quicklaunch-editor1</title>
<path fill="#0d2c56" d="M6.286 5.64c-1.963 3.998-1.8 9.018-1.286 13.305l-3.573 2.991c-0.492 0.608-1.441 1.013-1.427 1.87l1.872 6.587c0.255 0.543 0.354 1.502 1.128 1.607h1c0.5 0 0.898-0.75 1-1l2-5h8l2 5c0.14 0.25 0.5 1 1 1h1c0.354 0 0.647-0.099 0.834-0.446l1.728-6.131c0.118-0.77 0.722-1.578 0.274-2.329l-4.837-4.149c0.232-2.729 0.545-5.852 0.109-8.572-0.503-3.946-2.753-7.487-5.687-10.219-0.165-0.168-0.439-0.192-0.652-0.106-1.769 1.624-3.496 3.749-4.484 5.592z"></path>
<path fill="#fff" d="M12.502 5.403c0.902 0.529 1.498 1.493 1.498 2.597 0 0.553-0.15 1.071-0.411 1.516l0.008-0.014c-0.529 0.902-1.493 1.498-2.597 1.498-0.553 0-1.071-0.15-1.516-0.411l0.014 0.008c-0.902-0.529-1.498-1.493-1.498-2.597 0-0.553 0.15-1.071 0.411-1.516l-0.008 0.014c0.529-0.902 1.493-1.498 2.597-1.498 0.553 0 1.071 0.15 1.516 0.411l-0.014-0.008z"></path>
<path fill="#7f8691" d="M18 7.977l2 1.994 4-3.988 2 1.994c0 0-1 0.997 1 2.991l5 4.986v-5.983l-2-1.994c-2-1.994-3-0.997-3-0.997l-2-1.994c1.333-1.329 3.667-3.656 5-4.986h-6l-7 6.98z"></path>
</svg>
