<!-- Generated by IcoMoon.io -->
<svg version="1.1" xmlns="http://www.w3.org/2000/svg" width="20" height="20" viewBox="0 0 20 20">
<title>cut-20</title>
<path fill="#444" d="M18.471 4.946l-5.874 2.498 2.666-6.42c-0.049 0.042-2.132 0.934-2.611 1.827l-3.312 5.971-2.171 0.906c-0.19 0.071-0.379 0.095-0.562 0.095-0.348 0-0.557-0.135-0.565-0.143-0.435-0.314-0.909-0.49-1.043-0.537-0.262-0.082-0.518-0.121-0.777-0.121-1.307 0-2.32 0.951-2.509 1.142-0.444 0.425-0.685 0.933-0.69 1.465-0.012 0.898 0.624 1.53 0.651 1.557 0.458 0.464 1.051 0.704 1.649 0.702 0.905-0.004 1.808-0.49 2.489-1.087 0.327-0.287 0.615-0.843 0.674-1.119l2.514-0.681-0.494 2.663c-0.29 0.054-0.795 0.105-1.395 0.677-0.695 0.771-1.623 2.632-0.387 4.014 0.418 0.467 1.145 0.661 1.771 0.631 0.518-0.025 0.991-0.34 1.408-0.662 0.252-0.195 1.425-1.501 0.998-3.185-0.011-0.030-0.186-0.566-0.528-1.051-0.011-0.016-0.251-0.485 0.023-1.239 0 0 0.363-0.937 0.854-2.147l5.872-3.334c0.879-0.482 1.86-2.629 1.902-2.68zM5.333 11.468c-0.109 0.397-0.407 0.746-0.739 0.99-0.344 0.252-0.782 0.442-1.208 0.422-0.415-0.019-0.873-0.194-1.134-0.517-0.193-0.24-0.277-0.607-0.196-0.904 0.126-0.46 0.557-0.815 0.972-1.049 0.343-0.193 0.767-0.29 1.157-0.239 0.395 0.052 0.84 0.209 1.067 0.536 0.145 0.21 0.148 0.515 0.080 0.761zM9.673 17.132c-0.381 0.585-1.075 1.102-1.989 0.65-0.807-0.399-0.66-1.366-0.363-1.961 0.352-0.704 1.219-1.565 2.114-1.051 0.897 0.516 0.67 1.698 0.239 2.361zM10.497 10.042c-0.282 0-0.511-0.218-0.511-0.487s0.229-0.487 0.511-0.487c0.281 0 0.511 0.218 0.511 0.487s-0.23 0.487-0.511 0.487z"></path>
</svg>
