<!-- Generated by IcoMoon.io -->
<svg version="1.1" xmlns="http://www.w3.org/2000/svg" width="20" height="20" viewBox="0 0 20 20">
<title>edit-point-20</title>
<path fill="#444" d="M9.582 1.010c-3.148 0.151-5.856 1.897-7.35 4.442-0.783 1.335-1.232 2.889-1.232 4.548 0 3.311 1.788 6.205 4.451 7.768 1.335 0.783 2.889 1.232 4.549 1.232 3.311 0 6.204-1.788 7.767-4.451 0.783-1.335 1.233-2.89 1.233-4.549 0-3.311-1.788-6.204-4.45-7.767l-0.045-0.024c-1.292-0.76-2.846-1.209-4.505-1.209-0.147 0-0.293 0.004-0.439 0.010zM9.721 4.006c0.083-0.004 0.181-0.006 0.279-0.006 1.106 0 2.142 0.299 3.032 0.821l-0.027-0.014c1.803 1.057 2.995 2.986 2.995 5.193 0 1.106-0.299 2.143-0.822 3.033-1.042 1.775-2.971 2.967-5.178 2.967-1.106 0-2.143-0.299-3.032-0.822-1.776-1.042-2.968-2.971-2.968-5.178 0-1.106 0.299-2.142 0.821-3.032 0.996-1.697 2.801-2.861 4.886-2.961z"></path>
<path fill="#444" d="M11.502 7.403c0.902 0.529 1.498 1.493 1.498 2.597 0 0.553-0.15 1.071-0.411 1.516-0.521 0.888-1.485 1.484-2.589 1.484-0.553 0-1.071-0.15-1.516-0.411-0.888-0.521-1.484-1.485-1.484-2.589 0-0.553 0.15-1.071 0.411-1.516 0.521-0.888 1.486-1.484 2.589-1.484 0.553 0 1.071 0.15 1.516 0.411z"></path>
</svg>
