<!-- Generated by IcoMoon.io -->
<svg version="1.1" xmlns="http://www.w3.org/2000/svg" width="20" height="20" viewBox="0 0 20 20">
<title>lock-20</title>
<path fill="#444" d="M9 1c-3.017 0.080-4 1.442-4 5v3c-0.715-0.008-1.286-0.013-2 0v7c0 2 1 3 3 3h8c2 0 3-1 3-3v-7h-2l0.032-2.957c0.038-3.464-1.272-5.043-4.032-5.043h-2zM9 3h2c1.735 0 2 0.842 2 3v3h-6v-3c0-2.158 0.265-3 2-3zM10 11c1.108 0 2 0.892 2 2 0 0.743-0.402 1.387-1 1.732v1.801c0 0.554-0.446 1-1 1s-1-0.446-1-1v-1.801c-0.598-0.345-1-0.989-1-1.732 0-1.108 0.892-2 2-2z"></path>
</svg>
