<!-- Generated by IcoMoon.io -->
<svg version="1.1" xmlns="http://www.w3.org/2000/svg" width="20" height="20" viewBox="0 0 20 20">
<title>preview-20</title>
<path fill="#444" d="M2 1v15.401l3.039-3.039c-1.291-1.902-1.381-4.374-0.233-6.366 1.023-1.768 2.875-2.895 4.915-2.99 0.141-0.007 0.283-0.008 0.424-0.005 1.005 0.024 1.988 0.301 2.858 0.804l0.001 0.001c2.868 1.659 3.848 5.33 2.189 8.198s-5.329 3.848-8.198 2.189c-0.122-0.073-0.242-0.151-0.359-0.232l-3.706 3.706c-0.221 0.221-0.51 0.332-0.799 0.332h15.869v-13l-5-5zM2.131 19c-0.044 0-0.088-0.003-0.131-0.009v0.009zM2 18.991v-2.59l-0.668 0.668c-0.443 0.443-0.443 1.156 0 1.599 0.188 0.188 0.424 0.295 0.668 0.323zM9.814 6.004c-1.36 0.063-2.595 0.814-3.277 1.993-1.106 1.912-0.452 4.359 1.46 5.465s4.359 0.453 5.465-1.459c1.106-1.912 0.453-4.359-1.459-5.465l-0.001-0.001c-0.663-0.383-1.423-0.568-2.188-0.533z"></path>
</svg>
