<!-- Generated by IcoMoon.io -->
<svg version="1.1" xmlns="http://www.w3.org/2000/svg" width="20" height="20" viewBox="0 0 20 20">
<title>settings-20</title>
<path fill="#444" d="M7 1l-3.625 2c1.471 2.281 0.981 4.767-2.375 5v4c3.295 0.383 3.898 2.889 2.498 5l3.502 2c1.224-2.753 4.645-2.692 6 0l3.502-2c-1.321-1.984-0.747-4.541 2.498-5v-4c-2.843-0.165-4.013-2.521-2.498-5l-3.502-2c-1.284 2.784-4.716 2.727-6 0zM9.814 6.004c0.056-0.003 0.121-0.004 0.186-0.004 0.737 0 1.428 0.199 2.021 0.547l-0.018-0.009c1.202 0.705 1.997 1.991 1.997 3.462 0 0.738-0.2 1.429-0.548 2.022-0.695 1.183-1.981 1.978-3.452 1.978-0.738 0-1.428-0.2-2.022-0.548-1.184-0.695-1.978-1.981-1.978-3.452 0-0.737 0.199-1.428 0.547-2.021 0.664-1.131 1.868-1.907 3.258-1.974z"></path>
</svg>
