<!-- Generated by IcoMoon.io -->
<svg version="1.1" xmlns="http://www.w3.org/2000/svg" width="20" height="20" viewBox="0 0 20 20">
<title>trash-20</title>
<path fill="#444" d="M7.731 1c-0.405 0-0.731 0.326-0.731 0.731v1.269h-4.317c-0.378 0-0.683 0.304-0.683 0.683v0.635c0 0.378 0.304 0.683 0.683 0.683h0.317v12.633c0 0.757 0.61 1.367 1.367 1.367h11.266c0.757 0 1.367-0.61 1.367-1.367v-12.633h0.317c0.378 0 0.683-0.304 0.683-0.683v-0.635c0-0.378-0.304-0.683-0.683-0.683h-4.317v-1.269c0-0.405-0.326-0.731-0.731-0.731zM8.019 2h3.961c0.011 0 0.019 0.009 0.019 0.019v0.961c0 0.011-0.009 0.019-0.019 0.019h-3.961c-0.011 0-0.019-0.009-0.019-0.019v-0.961c0-0.011 0.009-0.019 0.019-0.019zM5.655 6h0.691c0.363 0 0.655 0.292 0.655 0.655v9.703c0 0.363-0.292 0.655-0.655 0.655h-0.691c-0.363 0-0.655-0.292-0.655-0.655v-9.703c0-0.363 0.292-0.655 0.655-0.655zM9.703 6h0.593c0.39 0 0.703 0.314 0.703 0.703v9.606c0 0.39-0.314 0.703-0.703 0.703h-0.593c-0.39 0-0.703-0.314-0.703-0.703v-9.606c0-0.39 0.314-0.703 0.703-0.703zM13.679 6h0.642c0.376 0 0.679 0.303 0.679 0.679v9.655c0 0.376-0.303 0.679-0.679 0.679h-0.642c-0.376 0-0.679-0.303-0.679-0.679v-9.655c0-0.376 0.303-0.679 0.679-0.679z"></path>
</svg>
