<!-- Generated by IcoMoon.io -->
<svg version="1.1" xmlns="http://www.w3.org/2000/svg" width="32" height="32" viewBox="0 0 32 32">
<title>brackets</title>
<path fill="#444" d="M10 12v-2c0-1.45 0.52-2 1.68-2h1.32v-4h-1.3c-2.706 0-4.9 2.742-4.9 6.125v1.5c0 1.45-0.94 2.375-2.1 2.375h-0.7v4h0.7c1.16 0 2.1 0.925 2.1 2.375v1.5c0 3.383 2.237 5.643 4.9 6.125h1.3v-4h-1.369c-1.16 0-1.631-0.496-1.631-2v-2c0-2.482-0.351-3-2-4 1.552-1 2-1.631 2-4z"></path>
<path fill="#444" d="M22 20v2c0 1.45-0.54 1.786-1.68 2h-1.32v4h1.3c2.706 0 4.9-2.742 4.9-6.125v-1.5c0-1.45 0.94-2.375 2.1-2.375h0.7v-4h-0.7c-1.16 0-2.1-0.925-2.1-2.375v-1.5c0-3.383-2.194-6.125-4.9-6.125h-1.3v4h1.369c1.16 0 1.631 0.496 1.631 2v2c0 2.473 0.414 3 2 4-1.586 1-2 1.533-2 4z"></path>
</svg>
