<!-- Generated by IcoMoon.io -->
<svg version="1.1" xmlns="http://www.w3.org/2000/svg" width="32" height="32" viewBox="0 0 32 32">
<title>cache2</title>
<path fill="#444" d="M18-0.003c-0.5 0.001-1 0.503-1 1.503v2.5h-2v-2.5c0-2-2-2-2 0v2.5h-2v-2.5c0-2-2-2-1.977 0v2.5h-4.023l-1 1v4h-2.5c-2 0-2 2 0 2h2.5v2h-2.5c-2 0-2 2.104 0 2.108h2.5v1.892h-2.5c-2 0-2 2.13 0 2.132h2.5v1.868h-2.5c-2 0-2 2 0 2l2.5 0.101v3.899l1 1h4v2.5c0 2 2 2 2 0v-2.5h2v2.5c0 2 2 2 2 0v-2.5h2v2.5c0 2 2 2 2 0v-2.5h2v2.5c0 2 2 2 2 0v-2.5h4l1-1v-4h2.5c2 0 2-1.928 0-2h-2.5v-1.887h2.5c2 0.020 2-2.113 0-2.113h-2.5v-2h2.5c2 0 2-2 0-2h-2.5v-1.88h2.5c2 0.034 2-2.12 0-2.12h-2.5v-4l-1-1h-4v-2.5c0-2-2-2-2 0v2.5h-2v-2.5c0-1.004-0.5-1.504-1-1.503zM10 10h12v12h-12v-12z"></path>
<path fill="#444" d="M12 12h8v8h-8v-8z"></path>
</svg>
