<!-- Generated by IcoMoon.io -->
<svg version="1.1" xmlns="http://www.w3.org/2000/svg" width="32" height="32" viewBox="0 0 32 32">
<title>clipboard</title>
<path fill="#444" d="M23.039 15.964l-14.066 0v1.957l14.066 0.064zM23.071 10.995l-14.034-0.064v2.001l14.034 0.064zM28.945 6.986c0.055-1.986-0.945-2.986-2.951-2.991l-3.908 0.010 1.906-2.991-15.964-0.062 1.97 3.044-3.988-0.004c-2.011 0.008-3.011 1.008-2.999 2.963l0.016 21.013c-0.028 2.032 0.972 3.032 3.047 3.019h19.932c1.992 0.012 2.992-0.988 2.952-2.972zM20.083 2.966l-1.982 3.076c-0.574 0-3.306 0.026-4.135-0.005l-1.962-3.046zM26.044 28.062l-20.020-0.001-0.044-20.079 20.050 0.004c0.032 0.574 0.014 20.076 0.014 20.076zM23.039 20.965l-14.066-0.032v2.011l14.066 0.064z"></path>
</svg>
