<!-- Generated by IcoMoon.io -->
<svg version="1.1" xmlns="http://www.w3.org/2000/svg" width="32" height="32" viewBox="0 0 32 32">
<title>context-menu-dots</title>
<path fill="#444" d="M15 13h3c1.105 0 2 0.895 2 2v3c0 1.105-0.895 2-2 2h-3c-1.105 0-2-0.895-2-2v-3c0-1.105 0.895-2 2-2z"></path>
<path fill="#444" d="M15 3h3c1.105 0 2 0.895 2 2v3c0 1.105-0.895 2-2 2h-3c-1.105 0-2-0.895-2-2v-3c0-1.105 0.895-2 2-2z"></path>
<path fill="#444" d="M15 23h3c1.105 0 2 0.895 2 2v3c0 1.105-0.895 2-2 2h-3c-1.105 0-2-0.895-2-2v-3c0-1.105 0.895-2 2-2z"></path>
</svg>
