<!-- Generated by IcoMoon.io -->
<svg version="1.1" xmlns="http://www.w3.org/2000/svg" width="32" height="32" viewBox="0 0 32 32">
<title>copy-locale</title>
<path fill="#444" d="M26.057 18.265c2.969-1.67 3.943-3.265 3.943-6.265 0-4-4-8-9-8s-9 3-9.036 6.906c-5.964 0.094-9.964 3.094-9.964 7.094 0 2.416 1.352 5.561 3.997 6.048 0.024 3.032-3.066 3.553-3.849 3.946 2.548 0.041 5.47-0.602 6.881-2.938 7.971 0.38 9.952-2.505 10.971-5.056 1.109 0.149 1.681 0.096 2.934 0.013 1.665 1.577 4.066 1.987 7.066 1.987-1.415-0.691-3.596-2.202-3.943-3.734zM15.013 19.014h-2.986v3.023h-2.030v-3.023h-3.023v-1.954h3.023v-3.078h2.030v3.078h2.986zM23 18c-1.191 0.151-1.958 0.227-2.989-0.045-0.268-2.537-1.067-5.723-5.914-6.924-0.097-2.712 2.903-5.030 6.903-5.030s7 3.452 7 6c0 2.461-0.385 3.245-4 5.502 0.394 1.348 1.855 2.658 3 3.498-2.365-0.786-3.323-1.884-4-3z"></path>
</svg>
