<!-- Generated by IcoMoon.io -->
<svg version="1.1" xmlns="http://www.w3.org/2000/svg" width="32" height="32" viewBox="0 0 32 32">
<title>edit-point-deactivated</title>
<path fill="#444" d="M15.303 1.016c-5.101 0.237-9.731 3.054-12.288 7.474-1.342 2.324-2.002 4.889-2.012 7.439-0.013 3.227 1.015 6.428 3.014 9.082l-2.542 2.541c-0.507 0.507-0.471 1.481 0.005 1.995s1.455 0.534 2.007-0.007l25.993-25.993c0.443-0.531 0.516-1.393 0-2s-1.5-0.495-2 0l-2.467 2.467c-0.479-0.362-0.98-0.695-1.501-0.998l-0.004-0.002c-2.176-1.258-4.632-1.949-7.145-2.010-0.364-0.007-0.72-0.004-1.060 0.012zM15.535 6.011c2.715-0.011 4.242 0.521 5.889 1.593l-3.706 3.706c-0.623-0.23-1.287-0.334-1.95-0.304-1.7 0.079-3.244 1.018-4.096 2.491-0.738 1.284-0.869 2.828-0.358 4.218l-3.705 3.705c-2.006-3.1-2.168-7.127-0.265-10.426 1.704-2.947 4.791-4.825 8.192-4.983z"></path>
<path fill="#444" d="M28.409 7.594l-3.635 3.635c1.666 3.058 1.621 6.762-0.118 9.779-2.716 4.688-8.672 6.361-13.432 3.771l-3.638 3.638c0.294 0.2 0.596 0.389 0.904 0.567 2.391 1.383 5.005 2.033 7.581 2.018 5.15-0.029 10.148-2.712 12.913-7.491 1.366-2.365 2.032-5.003 2.009-7.63-0.025-2.902-0.891-5.791-2.584-8.288z"></path>
<path fill="#444" d="M20.911 15.092l-5.819 5.82c0.274 0.053 0.589 0.084 0.911 0.084 1.837 0 3.443-0.991 4.312-2.468l0.013-0.023c0.42-0.716 0.668-1.577 0.668-2.496 0-0.324-0.031-0.64-0.090-0.947l0.005 0.031z"></path>
</svg>
