<!-- Generated by IcoMoon.io -->
<svg version="1.1" xmlns="http://www.w3.org/2000/svg" width="32" height="32" viewBox="0 0 32 32">
<title>filter</title>
<path fill="#444" d="M29 4.51c0.188 0.362-0.62 1.153-1 1.49l-10 10 0.049 11.881c0.002 0.487-0.239 0.829-0.718 1.026-0.159 0.058-0.313 0.087-0.46 0.087-0.331 0-0.829 0.006-1.275-0.394l-1.456-2.539c-0.16-0.278-0.126-0.736-0.126-1.038l-0.015-9.023-9.936-10c-0.508-0.528-1.064-1-1.032-1.394 0.208-0.452 0.694-0.647 1.209-0.647h23.486c0.515 0 1.065 0.099 1.273 0.551z"></path>
</svg>
