<!-- Generated by IcoMoon.io -->
<svg version="1.1" xmlns="http://www.w3.org/2000/svg" width="32" height="32" viewBox="0 0 32 32">
<title>help-deactivated</title>
<path fill="#444" d="M27.488 2.093c-0.373 0.014-0.744 0.166-0.994 0.413l-7.493 7.493h-7l-6-6v6h-2c-1 0-2 1-2 2v15l-1.511 1.511c-0.507 0.507-0.471 1.482 0.005 1.995s1.454 0.534 2.007-0.007l25.993-25.993c0.443-0.531 0.516-1.393 0-2-0.258-0.304-0.633-0.427-1.006-0.413zM26.003 10l-4.396 4.396c0.249 0.455 0.393 0.986 0.393 1.604-0.022 2.099-1.411 2.793-2.994 3.949-0.691 0.505-1.422 1.312-1.472 2.104v0.978h-3.072v-1.097l0.002-0.043c0.008-0.134 0.019-0.262 0.034-0.386l-8.495 8.495h21.997c1 0 2-1 2-2v-16c0-1-1-2-2-2zM15.998 12.014c0.307 0.001 0.623 0.017 0.942 0.046l-4.781 4.781-2.159-0.841c1.217-2.761 3.509-3.986 5.998-3.986zM16 24c1.078 0 2 0.922 2 2s-0.922 2-2 2c-1.078 0-2-0.922-2-2s0.922-2 2-2z"></path>
</svg>
