<!-- Generated by IcoMoon.io -->
<svg version="1.1" xmlns="http://www.w3.org/2000/svg" width="32" height="32" viewBox="0 0 32 32">
<title>info</title>
<path fill="#444" d="M4 2c-1.108 0-2 0.892-2 2v24c0 1.108 0.892 2 2 2h24c1.108 0 2-0.892 2-2v-24c0-1.108-0.892-2-2-2zM16.021 5.040c1.381 0 2.5 1.12 2.5 2.503s-1.119 2.503-2.5 2.503c-1.381 0-2.5-1.12-2.5-2.503s1.119-2.503 2.5-2.503zM14.981 12.026l3.010 0.017 0.009 11.957 2.996 1.015v1.001h-10.002v-1.033l3.001-0.984 0.023-9.948-2.991-0.004v-0.979l3.954-1.041z"></path>
</svg>
