<!-- Generated by IcoMoon.io -->
<svg version="1.1" xmlns="http://www.w3.org/2000/svg" width="32" height="32" viewBox="0 0 32 32">
<title>launchpad</title>
<path fill="#444" d="M28.774 2.021c-2.025-0.006-4.068 0.281-5.994 0.912-4.078 1.465-7.148 4.751-9.78 8.067h-4.754c-0.748 0.094-1.661-0.257-2.246 0.346l-3.324 5.816c-0.207 0.547-0.946 1.115-0.505 1.703 0.533 0.395 0.901 1.292 1.669 1.096 1.746-0.932 3.436-1.983 5.16-2.961l6 6-2.309 4.039c-0.228 0.582-1.030 1.203-0.454 1.808 0.492 0.401 0.822 1.325 1.576 1.085l5.402-3.101c0.613-0.456 1.575-0.614 1.798-1.432 0.001-2.086 0.002-4.172 0.002-6.258 2.048-1.738 4.081-3.538 5.678-5.715 2.403-3.072 3.363-7.027 3.307-10.876 0.007-0.226-0.159-0.426-0.36-0.508-0.288-0.013-0.577-0.019-0.866-0.020zM24.5 5c1.381 0 2.5 1.119 2.5 2.5s-1.119 2.5-2.5 2.5c-1.381 0-2.5-1.119-2.5-2.5s1.119-2.5 2.5-2.5z"></path>
<path fill="#444" d="M8 20l4 4-10 6z"></path>
</svg>
