<!-- Generated by IcoMoon.io -->
<svg version="1.1" xmlns="http://www.w3.org/2000/svg" width="32" height="32" viewBox="0 0 32 32">
<title>lock-open</title>
<path fill="#444" d="M6 14v11c0 2.77 2.23 5 5 5h10c2.77 0 5-2.23 5-5v-11zM16.073 17.001c0.502 0.012 0.994 0.15 1.429 0.402l0.001 0c1.434 0.83 1.924 2.665 1.094 4.099-0.358 0.618-0.924 1.087-1.597 1.325l-0 3.173c0 0.554-0.446 1-1 1s-1-0.446-1-1v-3.174c-0.174-0.061-0.342-0.138-0.502-0.23-1.434-0.83-1.924-2.665-1.095-4.099 0.511-0.884 1.437-1.447 2.458-1.495 0.071-0.003 0.141-0.004 0.212-0.002z"></path>
<path fill="#444" d="M21.923 15.936l4.258-4.243c2.359-2.35 2.359-6.135 0-8.485l-1.419-1.414c-2.359-2.35-6.157-2.35-8.515 0l-4.258 4.243 2.129 2.121 4.258-4.243c1.419-1.414 2.838-1.414 4.258 0l1.419 1.414c1.419 1.414 1.419 2.828 0 4.243-1.449 1.457-3.323 3.264-4.777 4.716z"></path>
</svg>
