<!-- Generated by IcoMoon.io -->
<svg version="1.1" xmlns="http://www.w3.org/2000/svg" width="32" height="32" viewBox="0 0 32 32">
<title>lock-closed</title>
<path fill="#444" d="M15 2c-3.324 0-6 2.676-6 6v6h-3v11c0 2.77 2.23 5 5 5h10c2.77 0 5-2.23 5-5v-11h-3v-6c0-3.324-2.676-6-6-6h-2zM16.399 4.997c0.354-0.001 0.707 0.004 1.059 0.037 1.372 0.183 2.496 1.428 2.538 2.811 0.009 2.051 0.001 4.103 0.004 6.155h-8v-4.699c0.019-0.66-0.053-1.328 0.077-1.98 0.282-1.33 1.565-2.348 2.923-2.321h0.338c0.353 0.007 0.707-0.001 1.061-0.003zM16.073 17.001c0.528 0.013 1.019 0.161 1.443 0.41l-0.013-0.007c0.902 0.529 1.497 1.493 1.497 2.597 0 0.553-0.15 1.071-0.411 1.516-0.352 0.599-0.906 1.065-1.568 1.304l-0.021 3.179c0 0.554-0.446 1-1 1s-1-0.446-1-1v-3.174c-0.194-0.069-0.36-0.146-0.517-0.237-0.888-0.521-1.484-1.485-1.484-2.589 0-0.553 0.15-1.071 0.411-1.516 0.498-0.848 1.401-1.43 2.443-1.48 0.049-0.002 0.098-0.004 0.147-0.004 0.025 0 0.050 0 0.075 0.001z"></path>
</svg>
