<!-- Generated by IcoMoon.io -->
<svg version="1.1" xmlns="http://www.w3.org/2000/svg" width="32" height="32" viewBox="0 0 32 32">
<title>log2</title>
<path fill="#444" d="M10 2c-3.438 6-3.438 10 0 16-1.667-1.143-5-3.429-5-8s3.333-6.857 5-8z"></path>
<path fill="#444" d="M7 0c-6.125 8-6.125 12 0 20-2.333-1-6.995-4.999-7-10s4.667-9 7-10z"></path>
<path fill="#444" d="M14 13l-6 19h2.667l0.583-2h9.5l0.583 2h2.667l-6-19zM16 15l1.641 5h-3.282zM13.75 22h4.5l0.622 2h-5.744zM12.5 26h7l0.603 2h-8.205z"></path>
<path fill="#444" d="M22 18c3.438-6 3.438-10 0-16 1.667 1.143 5 3.429 5 8s-3.333 6.857-5 8z"></path>
<path fill="#444" d="M25 20c6.125-8 6.125-12 0-20 2.333 1 6.995 4.999 7 10s-4.667 9-7 10z"></path>
<path fill="#444" d="M18.504 5.672c1.503 0.881 2.496 2.488 2.496 4.328 0 0.922-0.25 1.786-0.685 2.527l0.013-0.024c-0.881 1.503-2.489 2.496-4.328 2.496-0.922 0-1.786-0.249-2.527-0.685l0.024 0.013c-1.503-0.881-2.497-2.489-2.497-4.328 0-0.922 0.249-1.785 0.684-2.527l-0.013 0.024c0.881-1.503 2.489-2.497 4.328-2.497 0.922 0 1.785 0.249 2.526 0.684l-0.024-0.013z"></path>
</svg>
