<!-- Generated by IcoMoon.io -->
<svg version="1.1" xmlns="http://www.w3.org/2000/svg" width="32" height="32" viewBox="0 0 32 32">
<title>module2</title>
<path fill="#444" d="M16 2.056c-0.313 0-0.625 0.063-1 0.188l-14 5.75c-0.75 0.25-1 0.5-1 0.987v14.513c-0.002 0.669 0.25 1.25 1 1.5l14 5.75c0.75 0.25 1.25 0.25 2 0l14-5.75c0.75-0.25 1-0.75 1-1.5v-14.5c0-0.5-0.25-0.75-0.982-1.036l-14.018-5.714c-0.375-0.125-0.688-0.188-1-0.188zM16 4.494l2.761 1.078-10.159 4.036-2.853-1.113zM23.037 7.24l3.213 1.254-10.25 4-3.152-1.23zM29 9.958v13.036l-11.5 4.5v-13zM3 10l4 1.563v3.681l4 1.75v-3.868l3.5 1.368v13l-11.5-4.5z"></path>
</svg>
