<!-- Generated by IcoMoon.io -->
<svg version="1.1" xmlns="http://www.w3.org/2000/svg" width="32" height="32" viewBox="0 0 32 32">
<title>remove-locale</title>
<path fill="#444" d="M16 7c-5.525 0-10 4.213-10 9s4.475 9 10 9h2c2.584 1.455 5.563 1.858 8 2-1.339-0.699-4.042-1.544-4-3 0.004-0.141 0.166-0.417 0.348-0.55 2.263-1.589 3.652-4.73 3.652-7.45 0-4.787-4.475-9-10-9zM15.957 9h0.043c4.42 0 8.095 4.070 8 7-0.111 3.433-1.738 5.636-4 6.659 0.395 1.125 0.898 2.058 1.768 2.791-1.982-0.649-2.521-0.968-3.768-2.45h-2c-4.42 0-8-3.318-8-7s3.537-7 7.957-7z"></path>
<path fill="#444" d="M11 13l2-2 3 3 3-3 2 2-3 3 3 3-2 2-3-3-3 3-2-2 3-3z"></path>
</svg>
