<!-- Generated by IcoMoon.io -->
<svg version="1.1" xmlns="http://www.w3.org/2000/svg" width="32" height="32" viewBox="0 0 32 32">
<title>save-exit</title>
<path fill="#444" d="M24 0c-1.405 0-2.725 0.364-3.873 1h-14.119c-2.008 0-3.040 1-2.988 2.999 0 0-0.031 16.691-0.016 23.986v0c-0.005 2.015 0.995 3.015 3.015 3.057l17.994 0.032 5.018-5.040 0.032-11.841c1.792-1.467 2.937-3.697 2.937-6.193 0-4.417-3.582-8-8-8zM24 1.079c3.823 0 6.923 3.099 6.923 6.922s-3.101 6.922-6.923 6.922c-3.823 0-6.922-3.099-6.922-6.922s3.099-6.922 6.922-6.922zM27.001 2.956l-2.993 3.052-3.017-3.018-1.968 2.006 2.995 3.028-2.956 2.982 1.928 1.967 2.999-3.009 3.003 3.036 2-2.009-2.955-2.956 2.963-3.038-1.999-2.042zM17.083 3.982c-0.688 1.181-1.083 2.553-1.083 4.018 0 4.226 3.277 7.683 7.427 7.977h-17.409v-11.932l11.065-0.063zM20.948 21.985l0.064 7.053h-10.975l-0.054-7.021 10.965-0.032zM11.1 23.078l-0.032 4.902 3.987 0.032 0.032-4.934h-3.987z"></path>
</svg>
