<!-- Generated by IcoMoon.io -->
<svg version="1.1" xmlns="http://www.w3.org/2000/svg" width="32" height="32" viewBox="0 0 32 32">
<title>scheduler2</title>
<path fill="#444" d="M28 4h-3v1c0 1.5-1 2-2 2s-2-0.5-2-2v-1h-10v1c0 1.5-1.217 1.999-2.064 1.995-0.845-0.004-1.936-0.495-1.936-1.995v-1h-3c-1 0-2 1-2 1.995v21.005c0 1 1 2 2 2h24c1 0 2-1 2-2v-21c0-1.097-1-2-2-2zM28 27h-24v-18h24zM9 6c0.702 0 1-0.334 1-1v-4c0-0.5-0.298-1-1-1s-1 0.5-1 1v4c0 0.666 0.298 1 1 1zM23 6c0.702 0 1-0.334 1-1v-4c0-0.67-0.319-1-1.021-1s-0.979 0.334-0.979 1v4c0 0.5 0.298 1 1 1zM27 30h-22c-1 0-1-1-2-2 0 1 0.5 4 2 4h21.881c1 0 2.119-2 2.119-4-1 1-1 2-2 2z"></path>
<path fill="#444" d="M8 10.992v2.008h7v4h-7v2h7v4h-7v2h9v-14z"></path>
<path fill="#444" d="M19.969 10.992l0.031 2.008h2v12h2v-14.008z"></path>
</svg>
