<!-- Generated by IcoMoon.io -->
<svg version="1.1" xmlns="http://www.w3.org/2000/svg" width="32" height="32" viewBox="0 0 32 32">
<title>search</title>
<path fill="#444" d="M12.49 2c-5.793 0-10.49 4.705-10.49 10.509s4.697 10.509 10.49 10.509c2.185 0 4.503-0.396 6.815-2.386l0.824 0.864c-0.314 0.678-0.158 1.474 0.944 2.534l4.929 5.002c1.427 1.403 2.63 1.125 3.399 0.331 0.743-0.766 1.104-1.857-0.353-3.323l-5.007-4.971c-1.035-1.062-1.863-1.208-2.568-0.891l-0.839-0.88c2.004-2.342 2.346-4.623 2.346-6.789 0-5.803-4.696-10.509-10.49-10.509zM12.527 4.987c4.165 0 7.543 3.377 7.543 7.542 0.001 4.164-3.377 7.542-7.543 7.542s-7.543-3.378-7.543-7.542c0-4.165 3.377-7.542 7.543-7.542z"></path>
</svg>
