<!-- Generated by IcoMoon.io -->
<svg version="1.1" xmlns="http://www.w3.org/2000/svg" width="32" height="32" viewBox="0 0 32 32">
<title>search-replace</title>
<path fill="#444" d="M12.49 2c-5.793 0-10.49 4.705-10.49 10.509 0 4.242 2.51 7.897 6.122 9.557l2.878 2.935h-3.448c-0.833 0-1.509-0.673-1.509-1.502v-1.515c-1.183-0.808-2.208-1.829-3.018-3.009v5.025c0 2.212 1.801 4.005 4.023 4.005 1.412 0.001 2.713 0 4.035 0l-3.029 3.004h4.024l4.47-4.534-3.463-3.468c2.009-0.074 4.116-0.564 6.219-2.374l0.824 0.864c-0.314 0.678-0.158 1.474 0.944 2.534l4.929 5.002c1.427 1.403 2.63 1.125 3.399 0.331 0.743-0.766 1.104-1.857-0.353-3.323l-5.007-4.971c-1.035-1.062-1.863-1.208-2.568-0.891l-0.839-0.88c0.269-0.314 0.507-0.627 0.719-0.939l-2.214-2.198c-1.283 2.33-3.763 3.91-6.612 3.91-4.166 0-7.543-3.378-7.543-7.542 0-4.165 3.377-7.542 7.543-7.542 2.316 0 4.388 1.046 5.772 2.689l2.088-2.080c-1.923-2.203-4.747-3.596-7.898-3.596z"></path>
<path fill="#444" d="M21 7l-4.444 4.528 4.444 4.472h4l-2.928-3h3.428c0.828 0 1.5 0.672 1.5 1.5v5.5h3v-6c0-2.209-1.791-4-4-4-1.404-0.001-2.697-0-4.011 0l3.011-3z"></path>
</svg>
