<!-- Generated by IcoMoon.io -->
<svg version="1.1" xmlns="http://www.w3.org/2000/svg" width="32" height="32" viewBox="0 0 32 32">
<title>warning2</title>
<path fill="#444" d="M16 0c-0.69 0-1.379 0.465-1.903 1.395l-13.659 27.222c-1.046 1.86-0.156 3.383 1.978 3.383h27.166c2.134 0 3.025-1.522 1.978-3.383l-13.658-27.222c-0.523-0.93-1.213-1.395-1.903-1.395zM14 10h4v4l-1 8h-2l-1-8zM16.005 24.013c1.381 0 2.5 1.119 2.5 2.5s-1.119 2.5-2.5 2.5c-1.381 0-2.5-1.119-2.5-2.5s1.119-2.5 2.5-2.5z"></path>
</svg>
