<!-- Generated by IcoMoon.io -->
<svg version="1.1" xmlns="http://www.w3.org/2000/svg" width="32" height="32" viewBox="0 0 32 32">
<title>wrap-lines</title>
<path fill="#444" d="M4 4h24v2h-24v-2z"></path>
<path fill="#444" d="M4 8h24v2h-24v-2z"></path>
<path fill="#444" d="M4 24h10v2h-10v-2z"></path>
<path fill="#444" d="M4 20h10v2h-10v-2z"></path>
<path fill="#444" d="M4 12v2h19c1.657 0 3 1.343 3 3s-1.343 3-3 3h-2l1.493-1.483-1.493-1.517-4 4 4 4 1.492-1.456-1.492-1.544h2c2.761 0 5-2.239 5-5s-2.239-5-5-5z"></path>
<path fill="#444" d="M4 16h10v2h-10v-2z"></path>
</svg>
