<!-- Generated by IcoMoon.io -->
<svg version="1.1" xmlns="http://www.w3.org/2000/svg" width="20" height="20" viewBox="0 0 20 20">
<title>info-20</title>
<path fill="#444" d="M3.499 2c-0.633 0-1.499 0.903-1.499 1.537v12.933c0 0.633 0.878 1.53 1.512 1.53h12.971c0.633 0 1.518-0.847 1.518-1.48v-13.071c0-0.633-0.841-1.449-1.474-1.449zM10.012 3.587c0.789 0 1.429 0.64 1.429 1.43s-0.64 1.43-1.429 1.43c-0.789 0-1.429-0.64-1.429-1.43s0.64-1.43 1.429-1.43zM11 8v7l2 0.561v0.439h-6v-0.446l2-0.554v-6h-2v-0.455l2-0.545z"></path>
</svg>
