<!-- Generated by IcoMoon.io -->
<svg version="1.1" xmlns="http://www.w3.org/2000/svg" width="20" height="20" viewBox="0 0 20 20">
<title>move-20</title>
<path fill="#444" d="M5.269 2h-2.539c-0.403 0-0.731 0.317-0.731 0.708v2.583c0 0.391 0.327 0.708 0.731 0.708h2.539c0.402 0 0.731-0.317 0.731-0.708v-2.583c-0.001-0.391-0.328-0.708-0.731-0.708z"></path>
<path fill="#444" d="M11.269 2h-2.539c-0.403 0-0.731 0.317-0.731 0.708v2.583c0 0.391 0.327 0.708 0.731 0.708h2.539c0.402 0 0.731-0.317 0.731-0.708v-2.583c-0.001-0.391-0.328-0.708-0.731-0.708z"></path>
<path fill="#444" d="M17.269 2h-2.539c-0.403 0-0.731 0.317-0.731 0.708v2.583c0 0.391 0.327 0.708 0.731 0.708h2.539c0.402 0 0.731-0.317 0.731-0.708v-2.583c-0.001-0.391-0.328-0.708-0.731-0.708z"></path>
<path fill="#444" d="M5.269 8h-2.539c-0.403 0-0.731 0.317-0.731 0.708v2.583c0 0.391 0.327 0.708 0.731 0.708h2.539c0.402 0 0.731-0.317 0.731-0.708v-2.583c-0.001-0.391-0.328-0.708-0.731-0.708z"></path>
<path fill="#444" d="M11.269 8h-2.539c-0.403 0-0.731 0.317-0.731 0.708v2.583c0 0.391 0.327 0.708 0.731 0.708h2.539c0.402 0 0.731-0.317 0.731-0.708v-2.583c-0.001-0.391-0.328-0.708-0.731-0.708z"></path>
<path fill="#444" d="M17.269 8h-2.539c-0.403 0-0.731 0.317-0.731 0.708v2.583c0 0.391 0.327 0.708 0.731 0.708h2.539c0.402 0 0.731-0.317 0.731-0.708v-2.583c-0.001-0.391-0.328-0.708-0.731-0.708z"></path>
<path fill="#444" d="M5.269 14h-2.539c-0.403 0-0.731 0.317-0.731 0.708v2.583c0 0.391 0.327 0.708 0.731 0.708h2.539c0.402 0 0.731-0.317 0.731-0.708v-2.583c-0.001-0.391-0.328-0.708-0.731-0.708z"></path>
<path fill="#444" d="M11.269 14h-2.539c-0.403 0-0.731 0.317-0.731 0.708v2.583c0 0.391 0.327 0.708 0.731 0.708h2.539c0.402 0 0.731-0.317 0.731-0.708v-2.583c-0.001-0.391-0.328-0.708-0.731-0.708z"></path>
<path fill="#444" d="M17.269 14h-2.539c-0.403 0-0.731 0.317-0.731 0.708v2.583c0 0.391 0.327 0.708 0.731 0.708h2.539c0.402 0 0.731-0.317 0.731-0.708v-2.583c-0.001-0.391-0.328-0.708-0.731-0.708z"></path>
</svg>
