<!-- Generated by IcoMoon.io -->
<svg version="1.1" xmlns="http://www.w3.org/2000/svg" width="20" height="20" viewBox="0 0 20 20">
<title>search-20</title>
<path fill="#444" d="M7.675 1.008c-2.448 0.117-4.555 1.475-5.717 3.455-0.609 1.038-0.958 2.247-0.958 3.537 0 2.575 1.391 4.826 3.462 6.041 1.038 0.609 2.247 0.959 3.538 0.959 2.575 0 4.826-1.391 6.041-3.462 0.609-1.038 0.959-2.247 0.959-3.538 0-2.575-1.39-4.825-3.461-6.041l-0.035-0.019c-1.005-0.591-2.214-0.94-3.504-0.94-0.114 0-0.228 0.003-0.341 0.008zM7.768 3.005c0.069-0.003 0.151-0.005 0.232-0.005 0.922 0 1.785 0.249 2.526 0.684l-0.022-0.012c1.503 0.881 2.496 2.488 2.496 4.328 0 0.922-0.25 1.786-0.685 2.527-0.868 1.479-2.476 2.473-4.315 2.473-0.922 0-1.785-0.249-2.527-0.685-1.48-0.868-2.473-2.476-2.473-4.315 0-0.922 0.249-1.785 0.684-2.527 0.83-1.414 2.335-2.384 4.072-2.467z"></path>
<path fill="#444" d="M15.369 13.371l3.285 3.234c0.484 0.477 0.518 1.233 0.074 1.688l-0.35 0.359c-0.444 0.455-1.196 0.437-1.68-0.040l-3.285-3.234c-0.484-0.477-0.518-1.233-0.074-1.688l0.35-0.359c0.444-0.455 1.196-0.437 1.68 0.040z"></path>
<path fill="#444" d="M12.826 12.030l1.709 1.704c0.16 0.16 0.161 0.419 0.001 0.579l-0.26 0.261c-0.16 0.16-0.419 0.161-0.579 0.001l-1.709-1.704c-0.16-0.16-0.161-0.419-0.001-0.579l0.26-0.261c0.16-0.16 0.419-0.161 0.579-0.001z"></path>
</svg>
