<!-- Generated by IcoMoon.io -->
<svg version="1.1" xmlns="http://www.w3.org/2000/svg" width="32" height="32" viewBox="0 0 32 32">
<title>database</title>
<path fill="#fff" d="M2.635 3.412h26.935v25.282h-26.935v-25.282z"></path>
<path fill="#0d2c56" d="M32 6.653c0-0.886-0.314-1.874-1.808-3.135-0.888-0.749-2.104-1.402-3.615-1.941-2.852-1.018-6.604-1.578-10.564-1.578s-7.711 0.56-10.564 1.578c-1.511 0.539-2.727 1.192-3.615 1.941-1.495 1.261-1.757 2.249-1.757 3.135v18.629c0 0.886 0.262 1.874 1.757 3.135 0.888 0.749 2.104 1.402 3.615 1.941 2.852 1.018 6.63 1.578 10.59 1.578s7.685-0.56 10.538-1.578c1.511-0.539 2.727-1.192 3.615-1.941 1.495-1.261 1.808-2.249 1.808-3.135zM7.244 5.184c2.382-0.769 5.496-1.192 8.769-1.192s6.387 0.423 8.769 1.192c2.328 0.752 3.106 1.227 3.228 1.469-0.122 0.242-0.9 1.383-3.228 2.134-2.382 0.769-5.496 1.192-8.769 1.192s-6.387-0.423-8.769-1.192c-2.328-0.752-3.054-1.892-3.176-2.134 0.122-0.242 0.848-0.718 3.176-1.469zM24.782 26.751c-2.382 0.769-5.496 1.192-8.769 1.192s-6.387-0.423-8.769-1.192c-2.328-0.751-3.054-1.227-3.176-1.469v-5.657c0.44 0.206 0.874 0.57 1.381 0.751 2.852 1.017 6.604 1.578 10.564 1.578s7.711-0.56 10.564-1.578c0.506-0.18 0.995-0.546 1.433-0.751v5.657c-0.122 0.242-0.9 0.718-3.228 1.469zM24.782 17.77c-2.382 0.769-5.496 1.192-8.769 1.192s-6.387-0.423-8.769-1.192c-2.328-0.752-3.094-1.559-3.216-1.802l0.040-5.325c0.44 0.206 0.874 0.57 1.381 0.751 2.852 1.017 6.604 1.578 10.564 1.578s7.711-0.56 10.564-1.578c0.506-0.18 0.977-0.546 1.416-0.751v5.325c-0.122 0.242-0.883 1.050-3.211 1.802z"></path>
</svg>
