<!-- Generated by IcoMoon.io -->
<svg version="1.1" xmlns="http://www.w3.org/2000/svg" width="32" height="32" viewBox="0 0 32 32">
<title>launchpad1</title>
<path fill="#0d2c56" d="M28.773 2.017c-2.024-0.006-4.068 0.281-5.993 0.913-4.078 1.466-7.148 4.755-9.779 8.073h-4.754c-0.748 0.094-1.661-0.258-2.246 0.347l-3.324 5.82c-0.207 0.547-0.946 1.116-0.505 1.704 0.533 0.396 0.901 1.293 1.669 1.096 1.746-0.932 3.435-1.984 5.159-2.963l5.999 6.004-2.309 4.042c-0.227 0.582-1.030 1.204-0.454 1.809 0.492 0.401 0.822 1.325 1.576 1.085l5.401-3.104c0.613-0.456 1.575-0.614 1.797-1.433 0.001-2.088 0.002-4.175 0.002-6.263 2.047-1.74 4.081-3.54 5.677-5.719 2.403-3.074 3.363-7.032 3.307-10.884 0.007-0.226-0.159-0.426-0.36-0.509-0.288-0.013-0.577-0.019-0.866-0.020z"></path>
<path fill="#b31b34" d="M8.001 20.009l4 4.003-9.999 6.004z"></path>
<path fill="#fff" d="M25.752 5.336c0.751 0.441 1.248 1.244 1.248 2.164 0 0.461-0.125 0.893-0.342 1.264l0.006-0.012c-0.441 0.751-1.244 1.248-2.164 1.248-0.461 0-0.893-0.125-1.264-0.342l0.012 0.006c-0.752-0.441-1.248-1.244-1.248-2.164 0-0.461 0.125-0.893 0.342-1.263l-0.006 0.012c0.441-0.752 1.244-1.248 2.164-1.248 0.461 0 0.892 0.125 1.263 0.342l-0.012-0.006z"></path>
</svg>
