<!-- Generated by IcoMoon.io -->
<svg version="1.1" xmlns="http://www.w3.org/2000/svg" width="32" height="32" viewBox="0 0 32 32">
<title>module</title>
<path fill="#0d2c56" d="M15 2.25l-14 5.75c-0.75 0.25-1 0.5-1 0.987v14.513c-0.002 0.669 0.25 1.25 1 1.5l14 5.75c0.75 0.25 1.25 0.25 2 0l14-5.75c0.75-0.25 1-0.75 1-1.5v-14.5c0-0.5-0.25-0.75-0.982-1.036l-14.018-5.714c-0.75-0.25-1.25-0.25-2 0z"></path>
<path fill="#fff" d="M3 10.006v12.994l11.5 4.5v-13z"></path>
<path fill="#fff" d="M17.5 14.5v13l11.5-4.5v-13.036z"></path>
<path fill="#fff" d="M5.75 8.5l10.25-4 10.25 4-10.25 4z"></path>
<path fill="#b31b34" d="M11 12l15.192-6-4.192-1.709-15 5.959v5l4 1.75z"></path>
</svg>
