<!-- Generated by IcoMoon.io -->
<svg version="1.1" xmlns="http://www.w3.org/2000/svg" width="32" height="32" viewBox="0 0 32 32">
<title>search1</title>
<path fill="#b31b34" d="M18.5 19.75l1.588 1.677c-0.314 0.678-0.158 1.474 0.944 2.534l4.929 5.002c1.427 1.403 2.63 1.125 3.399 0.331 0.743-0.766 1.104-1.857-0.353-3.323l-5.007-4.971c-1.035-1.062-1.863-1.208-2.568-0.891l-1.603-1.693z"></path>
<path fill="#0d2c56" d="M17.759 3.412c3.156 1.85 5.241 5.226 5.241 9.088 0 1.936-0.524 3.75-1.438 5.307l0.027-0.049c-1.85 3.156-5.226 5.242-9.089 5.242-1.936 0-3.75-0.524-5.307-1.438l0.049 0.027c-3.157-1.85-5.243-5.226-5.243-9.089 0-1.936 0.524-3.749 1.437-5.306l-0.027 0.049c1.85-3.157 5.226-5.243 9.089-5.243 1.935 0 3.748 0.524 5.305 1.437l-0.049-0.027z"></path>
<path fill="#fff" d="M16.256 6.008c2.254 1.322 3.744 3.733 3.744 6.492 0 1.383-0.374 2.679-1.027 3.791l0.019-0.035c-1.322 2.254-3.733 3.744-6.492 3.744-1.383 0-2.678-0.374-3.79-1.027l0.035 0.019c-2.255-1.322-3.745-3.733-3.745-6.492 0-1.383 0.374-2.678 1.027-3.79l-0.019 0.035c1.322-2.255 3.733-3.745 6.492-3.745 1.382 0 2.677 0.374 3.79 1.026l-0.035-0.019z"></path>
</svg>
