<!-- Generated by IcoMoon.io -->
<svg version="1.1" xmlns="http://www.w3.org/2000/svg" width="32" height="32" viewBox="0 0 32 32">
<title>session1</title>
<path fill="#0d2c56" d="M2.184 3h27.632c1.206 0 2.184 0.978 2.184 2.184v18.632c0 1.206-0.978 2.184-2.184 2.184h-27.632c-1.206 0-2.184-0.978-2.184-2.184v-18.632c0-1.206 0.978-2.184 2.184-2.184z"></path>
<path fill="#fff" d="M2 5h28v18h-28v-18z"></path>
<path fill="#b31b34" d="M17 18v-2c1.574-0.66 2-2.5 2-3v-2c0-1.6-0.604-3-3-3-2.42 0-3 1.382-3 3v2c0 0.5 0.426 2.34 2 3v2c-5 0-6 1.926-6 4.068h14c0-2.142-1-4.068-6-4.068z"></path>
<path fill="#0d2c56" d="M14 25v2c0 1.185-1 2-4 2v1h12v-1c-3 0-4-0.815-4-2v-1.778z"></path>
</svg>
