<!-- Generated by IcoMoon.io -->
<svg version="1.1" xmlns="http://www.w3.org/2000/svg" width="32" height="32" viewBox="0 0 32 32">
<title>terminal</title>
<path fill="#0d2c56" d="M2.786 3h26.429c1.538 0 2.786 1.247 2.786 2.786v20.429c0 1.538-1.247 2.786-2.786 2.786h-26.429c-1.538 0-2.786-1.247-2.786-2.786v-20.429c0-1.538 1.247-2.786 2.786-2.786z"></path>
<path fill="#fff" d="M2.917 5h26.167c0.506 0 0.917 0.41 0.917 0.917v20.167c0 0.506-0.41 0.917-0.917 0.917h-26.167c-0.506 0-0.917-0.41-0.917-0.917v-20.167c0-0.506 0.41-0.917 0.917-0.917z"></path>
<path fill="#b31b34" d="M4.75 10.25c-0.417 0.417-0.25 1.25 0.25 1.75l4 4-4 4c-0.5 0.5-0.895 1.289-0.5 1.75 0.437 0.51 1.25 0.5 2-0.25l4.945-4.953c0.312-0.302 0.312-0.792 0-1.094l-4.945-4.953c-0.5-0.5-1.333-0.667-1.75-0.25z"></path>
<path fill="#b31b34" d="M14.5 23h11c0.276 0 0.5 0.224 0.5 0.5s-0.224 0.5-0.5 0.5h-11c-0.276 0-0.5-0.224-0.5-0.5s0.224-0.5 0.5-0.5z"></path>
</svg>
