<!-- Generated by IcoMoon.io -->
<svg version="1.1" xmlns="http://www.w3.org/2000/svg" width="32" height="32" viewBox="0 0 32 32">
<title>user</title>
<path fill="#fff" d="M12 3v19l-4 4h11l-1.233-19-0.163-2.336-5.604-1.664z"></path>
<path fill="#b31b34" d="M12.444 0c-5.333 0-5.333 4.029-5.333 9 0 3.096 1.597 6.191 3.556 7.432v1.65c-6.031 0.555-10.667 3.888-10.667 7.918h8.824c1.993-1.706 4.598-2.724 7.162-3.153-1.202-1.269-2.135-2.806-2.644-4.481-0.662-2.919-0.714-5.999-0.117-8.936 0.249-2.346 2.164-4.18 4.385-4.756-0.363-2.786-1.515-4.674-5.166-4.674z"></path>
<path fill="#0d2c56" d="M21.333 24.082v-1.649c1.958-1.241 3.556-4.337 3.556-7.432 0-4.971 0-9-5.333-9s-5.333 4.029-5.333 9c0 3.096 1.597 6.191 3.556 7.432v1.649c-6.031 0.555-10.667 3.888-10.667 7.918h24.889c0-4.030-4.636-7.364-10.667-7.918z"></path>
</svg>
