<?xml version="1.0" encoding="utf-8"?>
<svg viewBox="0 0 32 32" width="32" height="32" xmlns="http://www.w3.org/2000/svg">
  <svg width="32" height="32" viewBox="0 0 32 32">
    <path fill="#b31b34" d="M32 16c0 8.84-7.16 16-16 16S0 24.84 0 16 7.16 0 16 0s16 7.16 16 16z"/>
    <path fill="#fff" d="M26.5 16c0 5.8-4.7 10.5-10.5 10.5S5.5 21.8 5.5 16 10.2 5.5 16 5.5 26.5 10.2 26.5 16z"/>
    <path fill="#144382" d="M18.5 11.67c1.5.88 2.5 2.5 2.5 4.33 0 .92-.25 1.8-.7 2.53l.03-.03C19.45 20 17.83 21 16 21c-.92 0-1.8-.25-2.53-.7l.03.03C12 19.45 11 17.83 11 16c0-.92.25-1.8.68-2.53v.03C12.54 12 14.15 11 16 11c.92 0 1.78.25 2.53.68h-.03z"/>
  </svg>
</svg>