<!-- Generated by IcoMoon.io -->
<svg version="1.1" xmlns="http://www.w3.org/2000/svg" width="24" height="24" viewBox="0 0 24 24">
<title>binary</title>
<path fill="#0d2c56" d="M3 0h18c0.552 0 1 0.448 1 1v22c0 0.552-0.448 1-1 1h-18c-0.552 0-1-0.448-1-1v-22c0-0.552 0.448-1 1-1z"></path>
<path fill="#fff" d="M3 1h18v22h-18v-22z"></path>
<path fill="#fff" opacity="0.4" d="M3 0h18c0.552 0 1 0.448 1 1v22c0 0.552-0.448 1-1 1h-18c-0.552 0-1-0.448-1-1v-22c0-0.552 0.448-1 1-1z"></path>
<path fill="#0d2c56" d="M7 4h3v1h-3v-1z"></path>
<path fill="#0d2c56" d="M6 5v5h1v-1h1v-1h-1v-3z"></path>
<path fill="#0d2c56" d="M10 5v1h-1v1h1v3h1v-5z"></path>
<path fill="#0d2c56" d="M7 10h3v1h-3v-1z"></path>
<path fill="#0d2c56" d="M8 7h1v1h-1v-1z"></path>
<path fill="#0d2c56" d="M15 4v1h-1v1h1v4h-2v1h5v-1h-2v-6z"></path>
<path fill="#0d2c56" d="M14 13h3v1h-3v-1z"></path>
<path fill="#0d2c56" d="M13 14v5h1v-1h1v-1h-1v-3z"></path>
<path fill="#0d2c56" d="M17 14v1h-1v1h1v3h1v-5z"></path>
<path fill="#0d2c56" d="M14 19h3v1h-3v-1z"></path>
<path fill="#0d2c56" d="M15 16h1v1h-1v-1z"></path>
<path fill="#0d2c56" d="M8 13v1h-1v1h1v4h-2v1h5v-1h-2v-6z"></path>
</svg>
