<!-- Generated by IcoMoon.io -->
<svg version="1.1" xmlns="http://www.w3.org/2000/svg" width="24" height="24" viewBox="0 0 24 24">
<title>function</title>
<path fill="#0d2c56" d="M3 0h18c0.552 0 1 0.448 1 1v22c0 0.552-0.448 1-1 1h-18c-0.552 0-1-0.448-1-1v-22c0-0.552 0.448-1 1-1z"></path>
<path fill="#fff" d="M3 1h18v22h-18v-22z"></path>
<path fill="#fff" opacity="0.4" d="M3 0h18c0.552 0 1 0.448 1 1v22c0 0.552-0.448 1-1 1h-18c-0.552 0-1-0.448-1-1v-22c0-0.552 0.448-1 1-1z"></path>
<path fill="#0d2c56" d="M14 21l3-1.5c-1-2-0.5-3.5 2-3.5v-4c-2.5 0-3.341-1.5-2-3.5l-3-1.5c-1 2.5-3 2.5-4 0l-3 1.5c1 2 0.5 3.5-2 3.5v4c2.5 0 3 1.5 2 3.5l3 1.5c1-2.5 3-2.5 4 0zM9 14c0-1.75 1.5-3 3-3s3 1.25 3 3c0 1.75-1.25 3-3 3-1.5 0-3-1.25-3-3z"></path>
</svg>
