<!-- Generated by IcoMoon.io -->
<svg version="1.1" xmlns="http://www.w3.org/2000/svg" width="24" height="24" viewBox="0 0 24 24">
<title>group</title>
<path fill="#b31b34" d="M9 0c-3.857 0-3.857 3.22-3.857 6.96 0 2.329 1.441 5.106 2.857 6.040v1c-4.361 0.417-8 2.968-8 6h6.508c1.3-1.384 3.126-2.321 4.936-2.791 0.157-0.136 0.939-0.039 0.649-0.312-0.721-0.852-1.239-1.815-1.593-2.839l-0.333-1.178c-0.417-1.873-0.369-3.879-0.068-5.746 0.036-1.663 1.109-3.197 2.57-3.934-0.327-1.903-1.221-3.201-3.668-3.201z"></path>
<path fill="#0d2c56" d="M16 18v-1c1.416-0.934 2.857-3.711 2.857-6.040 0-3.74 0-6.96-3.857-6.96s-3.857 3.22-3.857 6.96c0 2.329 1.441 5.106 2.857 6.040v1c-4.361 0.417-8 2.968-8 6h18c0-3.032-3.639-5.583-8-6z"></path>
</svg>
