<!-- Generated by IcoMoon.io -->
<svg version="1.1" xmlns="http://www.w3.org/2000/svg" width="24" height="24" viewBox="0 0 24 24">
<title>htmlredirect</title>
<path fill="#0d2c56" d="M3 0h18c0.552 0 1 0.448 1 1v22c0 0.552-0.448 1-1 1h-18c-0.552 0-1-0.448-1-1v-22c0-0.552 0.448-1 1-1z"></path>
<path fill="#fff" d="M3 1h18v22h-18v-22z"></path>
<path fill="#fff" opacity="0.4" d="M3 0h18c0.552 0 1 0.448 1 1v22c0 0.552-0.448 1-1 1h-18c-0.552 0-1-0.448-1-1v-22c0-0.552 0.448-1 1-1z"></path>
<path fill="#0d2c56" d="M0 12v4c0 0.5 0.5 1 0.956 1h5.044v4l7-7-7-7v4h-5c-0.5 0-1 0.5-1 1z"></path>
<path fill="#2197db" d="M1 12v4h6v2.75l4.75-4.75-4.75-4.75v2.75z"></path>
</svg>
