<!-- Generated by IcoMoon.io -->
<svg version="1.1" xmlns="http://www.w3.org/2000/svg" width="24" height="24" viewBox="0 0 24 24">
<title>js</title>
<path fill="#0d2c56" d="M2 1v22c0 0.5 0.5 1 1 1h18c0.494 0 1-0.5 1-1v-16l-7-7h-11.919c-0.581 0-1.080 0.5-1.080 1z"></path>
<path fill="#fff" d="M3 1v22h18v-17l-5-5z"></path>
<path fill="#0d2c56" d="M15 0v6c0 0.5 0.5 1 1 1h6z"></path>
<path fill="#fff" opacity="0.4" d="M2 1v22c0 0.5 0.5 1 1 1h18c0.494 0 1-0.5 1-1v-16l-7-7h-11.919c-0.581 0-1.080 0.5-1.080 1z"></path>
<path fill="#b31b34" d="M8.333 13v-1c0-0.725 0.289-1 0.933-1h0.733v-2h-0.722c-1.503 0-2.722 1.371-2.722 3.063v0.75c0 0.725-0.522 1.188-1.167 1.188h-0.389v2h0.389c0.644 0 1.167 0.463 1.167 1.188v0.75c0 1.691 1.243 2.822 2.722 3.063h0.722v-2h-0.761c-0.644 0-0.906-0.248-0.906-1v-1c0-1.241-0.195-1.5-1.111-2 0.862-0.5 1.111-0.815 1.111-2z"></path>
<path fill="#b31b34" d="M15.667 17v1c0 0.725-0.3 0.893-0.933 1h-0.733v2h0.722c1.503 0 2.722-1.371 2.722-3.063v-0.75c0-0.725 0.522-1.188 1.167-1.188h0.389v-2h-0.389c-0.644 0-1.167-0.463-1.167-1.188v-0.75c0-1.691-1.219-3.063-2.722-3.063h-0.722v2h0.761c0.644 0 0.906 0.248 0.906 1v1c0 1.236 0.23 1.5 1.111 2-0.881 0.5-1.111 0.766-1.111 2z"></path>
<path fill="#b31b34" d="M11 12h2v2h-2v-2z"></path>
<path fill="#b31b34" d="M11 16h2v2l-1.75 3h-0.5v-1.25l1-1.75h-0.75z"></path>
</svg>
