<!-- Generated by IcoMoon.io -->
<svg version="1.1" xmlns="http://www.w3.org/2000/svg" width="24" height="24" viewBox="0 0 24 24">
<title>jsp</title>
<path fill="#b31b34" d="M3 0h18c0.552 0 1 0.448 1 1v22c0 0.552-0.448 1-1 1h-18c-0.552 0-1-0.448-1-1v-22c0-0.552 0.448-1 1-1z"></path>
<path fill="#fff" d="M3 1h18v22h-18v-22z"></path>
<path fill="#fff" opacity="0.4" d="M3 0h18c0.552 0 1 0.448 1 1v22c0 0.552-0.448 1-1 1h-18c-0.552 0-1-0.448-1-1v-22c0-0.552 0.448-1 1-1z"></path>
<path fill="#b31b34" opacity="0.1" d="M3 1h18v22h-18v-22z"></path>
<path fill="#b31b34" d="M1 8h22v9h-22v-9z"></path>
<path fill="#fff" d="M18 9c1 0 2 0.5 2 2.041 0 1.459-1 1.959-2 1.959h-2v3h-1v-7zM16 10v2h2c0.5 0 1-0.25 1-1s-0.5-1-1-1z"></path>
<path fill="#fff" d="M14 9v1h-3.5c-0.25 0-0.5 0.25-0.5 0.463v1.037c-0.013 0.32 0.25 0.5 0.5 0.5h2.25c0.75 0 1.25 0.5 1.25 1.25v1.5c-0.001 0.663-0.5 1.25-1.25 1.25h-3.75v-1h3.5c0.25 0 0.5-0.25 0.5-0.5v-1c0-0.25-0.25-0.5-0.5-0.5h-2.25c-0.721 0.010-1.25-0.5-1.25-1.25v-1.5c-0.011-0.806 0.5-1.25 1.25-1.25z"></path>
<path fill="#fff" d="M7 9h1v5.75c-0.003 0.656-0.573 1.253-1.25 1.25h-1.5c-0.75 0-1.25-0.5-1.25-1.25v-0.75h1v0.5c0.034 0.37 0.25 0.5 0.5 0.5h1c0.25 0 0.5-0.25 0.5-0.5z"></path>
</svg>
