<!-- Generated by IcoMoon.io -->
<svg version="1.1" xmlns="http://www.w3.org/2000/svg" width="24" height="24" viewBox="0 0 24 24">
<title>jsp_search</title>
<path fill="#0d2c56" d="M3 0h18c0.552 0 1 0.448 1 1v22c0 0.552-0.448 1-1 1h-18c-0.552 0-1-0.448-1-1v-22c0-0.552 0.448-1 1-1z"></path>
<path fill="#fff" d="M3 1h18v22h-18v-22z"></path>
<path fill="#fff" opacity="0.4" d="M3 0h18c0.552 0 1 0.448 1 1v22c0 0.552-0.448 1-1 1h-18c-0.552 0-1-0.448-1-1v-22c0-0.552 0.448-1 1-1z"></path>
<path fill="#0d2c56" d="M10.217 6.99c-2.891 0-5.217 2.361-5.217 5.26s2.325 5.24 5.217 5.24c1.091 0 2.248-0.198 3.402-1.192l0.411 0.432c-0.157 0.339-0.079 0.736 0.471 1.266l2.46 2.499c0.712 0.701 1.312 0.562 1.696 0.165 0.371-0.383 0.551-0.928-0.176-1.66l-2.499-2.484c-0.516-0.531-0.93-0.604-1.282-0.445l-0.419-0.44c1-1.17 1.171-2.31 1.171-3.392 0-2.899-2.344-5.25-5.236-5.25z"></path>
<path fill="#fff" d="M12.119 8.989c1.133 0.664 1.881 1.875 1.881 3.261 0 0.695-0.188 1.346-0.516 1.905l0.010-0.018c-0.664 1.133-1.876 1.881-3.262 1.881-0.695 0-1.346-0.188-1.905-0.516l0.018 0.010c-1.133-0.664-1.882-1.875-1.882-3.261 0-0.695 0.188-1.345 0.516-1.904l-0.010 0.018c0.664-1.133 1.876-1.882 3.263-1.882 0.695 0 1.345 0.188 1.904 0.516l-0.018-0.010z"></path>
</svg>
