<!-- Generated by IcoMoon.io -->
<svg version="1.1" xmlns="http://www.w3.org/2000/svg" width="24" height="24" viewBox="0 0 24 24">
<title>linkgallery</title>
<path fill="#ffc61e" d="M10 4h12.971c0.529 0 1.029 0.5 1.029 1v15.999c0 0.501-0.5 1.001-1 1.001h-21.991c-0.509 0-1.009-0.5-1.009-1v-19c0-0.5 0.5-1 1-1h6z"></path>
<path fill="#fdf9ae" d="M1 6h22v15h-22v-15z"></path>
<path fill="#fff" d="M8.042 8h4.916c1.68 0 3.042 1.362 3.042 3.042v4.916c0 1.68-1.362 3.042-3.042 3.042h-4.916c-1.68 0-3.042-1.362-3.042-3.042v-4.916c0-1.68 1.362-3.042 3.042-3.042z"></path>
<path fill="#0d2c56" d="M15.977 14.273v2.5q0 0.93-0.66 1.59t-1.59 0.66h-6.5q-0.93 0-1.59-0.66t-0.66-1.59v-6.5q0-0.93 0.66-1.59t1.59-0.66h5.5q0.109 0 0.18 0.070t0.070 0.18v0.5q0 0.109-0.070 0.18t-0.18 0.070h-5.5q-0.516 0-0.883 0.367t-0.367 0.883v6.5q0 0.516 0.367 0.883t0.883 0.367h6.5q0.516 0 0.883-0.367t0.367-0.883v-2.5q0-0.109 0.070-0.18t0.18-0.070h0.5q0.109 0 0.18 0.070t0.070 0.18zM18.977 7.523v4q0 0.203-0.148 0.352t-0.352 0.148-0.352-0.148l-1.375-1.375-5.094 5.094q-0.078 0.078-0.18 0.078t-0.18-0.078l-0.891-0.891q-0.078-0.078-0.078-0.18t0.078-0.18l5.094-5.094-1.375-1.375q-0.148-0.148-0.148-0.352t0.148-0.352 0.352-0.148h4q0.203 0 0.352 0.148t0.148 0.352z"></path>
</svg>
