<!-- Generated by IcoMoon.io -->
<svg version="1.1" xmlns="http://www.w3.org/2000/svg" width="24" height="24" viewBox="0 0 24 24">
<title>localization</title>
<path fill="#0d2c56" d="M3 0h18c0.552 0 1 0.448 1 1v22c0 0.552-0.448 1-1 1h-18c-0.552 0-1-0.448-1-1v-22c0-0.552 0.448-1 1-1z"></path>
<path fill="#fff" d="M3 1h18v22h-18v-22z"></path>
<path fill="#fff" opacity="0.4" d="M3 0h18c0.552 0 1 0.448 1 1v22c0 0.552-0.448 1-1 1h-18c-0.552 0-1-0.448-1-1v-22c0-0.552 0.448-1 1-1z"></path>
<path fill="#0d2c56" d="M17.030 15.108c1.484-0.835 1.972-1.633 1.971-3.133-0.001-2.135-2-4.001-4.5-4.001s-4.5 1.5-4.518 3.454c-3.483 0.072-4.981 1.822-4.982 3.548-0.001 1.774 0.999 2.774 1.999 3.024 0.012 1.516-1.533 1.777-1.925 1.974 1.274 0.021 2.735-0.301 3.441-1.469 3.985 0.19 5.234-1.504 5.485-2.528 0.555 0.075 0.84 0.048 1.467 0.006 0.832 0.789 2.033 0.994 3.533 0.994-0.708-0.346-1.798-1.101-1.971-1.867z"></path>
<path fill="#fff" d="M15.5 15.001c-0.595 0.076-0.979 0.114-1.495-0.023-0.134-1.269-0.533-2.862-2.957-3.463-0.049-1.356 1.451-2.516 3.451-2.516s3.41 1.349 3.5 3.001c0.054 1.002-0.193 1.623-2 2.752 0.197 0.674 0.927 1.329 1.5 1.749-1.183-0.393-1.662-0.942-2-1.5z"></path>
</svg>
