<!-- Generated by IcoMoon.io -->
<svg version="1.1" xmlns="http://www.w3.org/2000/svg" width="24" height="24" viewBox="0 0 24 24">
<title>pdf</title>
<path fill="#0d2c56" d="M2 1v22c0 0.5 0.5 1 1 1h18c0.494 0 1-0.5 1-1v-16l-7-7h-11.919c-0.581 0-1.080 0.5-1.080 1z"></path>
<path fill="#fff" d="M3 1v22h18v-17l-5-5z"></path>
<path fill="#0d2c56" d="M15 0v6c0 0.5 0.5 1 1 1h6z"></path>
<path fill="#fff" opacity="0.4" d="M2 1v22c0 0.5 0.5 1 1 1h18c0.494 0 1-0.5 1-1v-16l-7-7h-11.919c-0.581 0-1.080 0.5-1.080 1z"></path>
<path fill="#b31b34" d="M19.741 15.087c-0.32-0.362-1.029-0.554-2.109-0.57-0.731-0.009-1.61 0.065-2.535 0.214-0.414-0.275-0.841-0.574-1.176-0.934-0.901-0.968-1.654-2.311-2.123-3.788 0.031-0.138 0.057-0.259 0.081-0.383 0 0 0.508-3.315 0.373-4.436-0.019-0.154-0.030-0.198-0.066-0.318l-0.044-0.13c-0.138-0.366-0.409-0.754-0.833-0.733l-0.256-0.009c-0.473 0-0.859 0.278-0.961 0.694-0.308 1.305 0.010 3.257 0.585 5.785l-0.147 0.412c-0.412 1.155-0.929 2.318-1.384 3.345l-0.059 0.133c-0.479 1.079-0.915 1.994-1.309 2.77l-0.407 0.248c-0.030 0.018-0.728 0.442-0.891 0.556-1.389 0.953-2.309 2.035-2.462 2.894-0.049 0.274-0.012 0.625 0.235 0.787l0.394 0.228c0.171 0.098 0.351 0.148 0.536 0.148 0.989 0 2.137-1.416 3.719-4.59 1.826-0.683 3.906-1.252 5.728-1.565 1.389 0.899 3.097 1.523 4.175 1.523 0.191 0 0.356-0.021 0.491-0.062 0.207-0.063 0.381-0.198 0.487-0.382 0.209-0.362 0.252-0.86 0.195-1.371-0.017-0.151-0.122-0.339-0.236-0.467zM4.968 21.137c0.18-0.567 0.894-1.688 1.95-2.682 0.066-0.062 0.23-0.238 0.38-0.401-1.104 2.024-1.843 2.83-2.329 3.084zM11.221 4.586c0.318 0 0.499 0.921 0.514 1.785s-0.161 1.47-0.379 1.918c-0.18-0.664-0.268-1.711-0.268-2.395 0 0-0.013-1.308 0.133-1.308zM9.356 16.381c0.221-0.456 0.452-0.936 0.687-1.446 0.574-1.248 0.936-2.224 1.206-3.027 0.537 1.123 1.206 2.078 1.992 2.842 0.098 0.095 0.202 0.191 0.311 0.287-1.599 0.364-2.98 0.806-4.196 1.343zM19.434 16.277c-0.097 0.070-0.376 0.11-0.556 0.11-0.579 0-1.295-0.304-2.3-0.799 0.386-0.033 0.74-0.050 1.057-0.050 0.581 0 0.753-0.003 1.321 0.164s0.575 0.505 0.478 0.575z"></path>
</svg>
