<!-- Generated by IcoMoon.io -->
<svg version="1.1" xmlns="http://www.w3.org/2000/svg" width="24" height="24" viewBox="0 0 24 24">
<title>pointer</title>
<path fill="#0d2c56" d="M3 0h18c0.552 0 1 0.448 1 1v22c0 0.552-0.448 1-1 1h-18c-0.552 0-1-0.448-1-1v-22c0-0.552 0.448-1 1-1z"></path>
<path fill="#fff" d="M3 1h18v22h-18v-22z"></path>
<path fill="#fff" opacity="0.4" d="M3 0h18c0.552 0 1 0.448 1 1v22c0 0.552-0.448 1-1 1h-18c-0.552 0-1-0.448-1-1v-22c0-0.552 0.448-1 1-1z"></path>
<path fill="#fff" d="M7.333 10h6.334c1.289 0 2.333 1.045 2.333 2.333v6.334c0 1.289-1.045 2.333-2.333 2.333h-6.334c-1.289 0-2.333-1.045-2.333-2.333v-6.334c0-1.289 1.045-2.333 2.333-2.333z"></path>
<path fill="#0d2c56" d="M15.982 16.259v2.495q0 0.928-0.659 1.587t-1.587 0.659h-6.489q-0.928 0-1.587-0.659t-0.659-1.587v-6.487q0-0.928 0.659-1.587t1.587-0.659h5.491q0.109 0 0.179 0.070t0.070 0.179v0.499q0 0.109-0.070 0.179t-0.179 0.070h-5.491q-0.515 0-0.881 0.366t-0.367 0.881v6.487q0 0.515 0.367 0.881t0.881 0.366h6.489q0.515 0 0.881-0.366t0.367-0.881v-2.495q0-0.109 0.070-0.179t0.179-0.070h0.499q0.109 0 0.179 0.070t0.070 0.179zM18.977 9.522v3.992q0 0.203-0.148 0.351t-0.351 0.148-0.351-0.148l-1.373-1.372-5.085 5.084q-0.078 0.078-0.179 0.078t-0.179-0.078l-0.889-0.889q-0.078-0.078-0.078-0.179t0.078-0.179l5.085-5.084-1.373-1.372q-0.148-0.148-0.148-0.351t0.148-0.351 0.351-0.148h3.993q0.203 0 0.351 0.148t0.148 0.351z"></path>
</svg>
