<!-- Generated by IcoMoon.io -->
<svg version="1.1" xmlns="http://www.w3.org/2000/svg" width="24" height="24" viewBox="0 0 24 24">
<title>powerpoint</title>
<path fill="#0d2c56" d="M2 1v22c0 0.5 0.5 1 1 1h18c0.494 0 1-0.5 1-1v-16l-7-7h-11.919c-0.581 0-1.080 0.5-1.080 1z"></path>
<path fill="#fff" d="M3 1v22h18v-17l-5-5z"></path>
<path fill="#0d2c56" d="M15 0v6c0 0.5 0.5 1 1 1h6z"></path>
<path fill="#fff" opacity="0.4" d="M2 1v22c0 0.5 0.5 1 1 1h18c0.494 0 1-0.5 1-1v-16l-7-7h-11.919c-0.581 0-1.080 0.5-1.080 1z"></path>
<path fill="#b31b34" d="M4 8h16v14h-16v-14z"></path>
<path fill="#fff" d="M10.75 11.5l-0.020 3h1.713c1.45 0.035 1.864-0.5 1.87-1.5s-0.611-1.505-1.851-1.5zM9 10h3.443c1.128 0 1.98 0.255 2.556 0.764 0.58 0.505 1.002 1.259 1.002 2.236 0 0.987-0.422 1.72-1.002 2.224-0.575 0.505-1.427 0.757-2.556 0.757h-1.713v4.019h-1.73z"></path>
</svg>
