<!-- Generated by IcoMoon.io -->
<svg version="1.1" xmlns="http://www.w3.org/2000/svg" width="24" height="24" viewBox="0 0 24 24">
<title>principal-all</title>
<path fill="#1bb39a" d="M17.588 2.355c3.345 1.964 5.556 5.546 5.556 9.645 0 2.055-0.556 3.98-1.525 5.632l0.028-0.052c-1.961 3.349-5.54 5.563-9.634 5.563-2.052 0-3.975-0.556-5.625-1.526l0.052 0.028c-3.346-1.964-5.557-5.546-5.557-9.646 0-2.054 0.555-3.979 1.524-5.631l-0.028 0.052c1.961-3.35 5.54-5.564 9.635-5.564 2.052 0 3.974 0.556 5.624 1.525l-0.052-0.028z"></path>
<path fill="#0d2c56" d="M12 0c-6.627 0-12 5.373-12 12s5.373 12 12 12c6.627 0 12-5.373 12-12s-5.373-12-12-12zM8 2v1l-3.5 4h-1.5c1.198-2.071 2.739-4.135 5-5zM12 15l-5.36 6.030c-0.219-0.13-0.432-0.268-0.64-0.413v-4.617l-3-2v-4c0-0.5 0.25-1 1-1h2c0 0 2.25 3.25 6 4zM21.074 11.502c-0.371-1.248-0.692-1.369-2.324-1.924v-0c-0.558-0.175-1.084-0.484-1.527-0.926-1.464-1.464-1.723-3.902 0-5.303 0.098-0.098 0.201-0.189 0.307-0.274 2.983 1.852 4.969 5.157 4.969 8.926 0 1.944-0.829 4.439-1.75 6 0.386-2.496 0.544-5.17 0.324-6.498z"></path>
</svg>
