<!-- Generated by IcoMoon.io -->
<svg version="1.1" xmlns="http://www.w3.org/2000/svg" width="24" height="24" viewBox="0 0 24 24">
<title>publish</title>
<path fill="#fff" d="M17.508 2.481c3.306 1.938 5.491 5.474 5.491 9.52 0 2.028-0.549 3.928-1.507 5.559-1.91 3.254-5.446 5.439-9.493 5.439-2.028 0-3.928-0.549-5.559-1.506-3.255-1.91-5.44-5.446-5.44-9.493 0-2.028 0.549-3.927 1.506-5.558 1.91-3.255 5.447-5.441 9.494-5.441 2.027 0 3.927 0.548 5.558 1.505z"></path>
<path fill="#b31b34" d="M12 1c-4.247 0-7.89 2.384-9.715 5.939l-2.285-1.013 0.024 8.853 6.976-5.778-1.98-0.987c1.315-2.422 4.045-4.013 6.98-4.013 4.274 0 8 3.704 8 8 0 4.295-3.726 8-8 8-2.668 0-5.212-1.347-6.608-3.414l-2.157 1.971c2.004 2.691 5.171 4.443 8.764 4.443 6.055 0 11-4.916 11-11 0-6.086-4.945-11-11-11z"></path>
<path fill="#0d2c56" d="M12 6c-0.54 0-1.005 0.452-1 1l0.043 4.93c0.001 0.129 0.036 0.48 0.119 0.703 0.087 0.235 0.298 0.555 0.388 0.645l2.906 2.787c0.381 0.386 0.988 0.481 1.37 0.095 0.381-0.388 0.349-1.005-0.033-1.394l-2.794-2.766v-5c0-0.546-0.46-1-1-1z"></path>
</svg>
