<!-- Generated by IcoMoon.io -->
<svg version="1.1" xmlns="http://www.w3.org/2000/svg" width="24" height="24" viewBox="0 0 24 24">
<title>role</title>
<path fill="#7f8691" d="M13 18v-1c1.416-0.934 2.857-3.711 2.857-6.040 0-3.74 0-6.96-3.857-6.96s-3.857 3.22-3.857 6.96c0 2.329 1.441 5.106 2.857 6.040v1c-4.361 0.417-8 2.968-8 6h18c0-3.032-3.639-5.583-8-6z"></path>
<path fill="#ffc61e" d="M7 4h10c0.552 0 1 0.448 1 1v1c0 0.552-0.448 1-1 1h-10c-0.552 0-1-0.448-1-1v-1c0-0.552 0.448-1 1-1z"></path>
<path fill="#ffc61e" d="M10 1h4c0.552 0 1 0.448 1 1v2c0 0.552-0.448 1-1 1h-4c-0.552 0-1-0.448-1-1v-2c0-0.552 0.448-1 1-1z"></path>
</svg>
