<!-- Generated by IcoMoon.io -->
<svg version="1.1" xmlns="http://www.w3.org/2000/svg" width="24" height="24" viewBox="0 0 24 24">
<title>unknown_file</title>
<path fill="#b31b34" d="M3 0h18c0.552 0 1 0.448 1 1v22c0 0.552-0.448 1-1 1h-18c-0.552 0-1-0.448-1-1v-22c0-0.552 0.448-1 1-1z"></path>
<path fill="#fff" d="M3 1h18v22h-18v-22z"></path>
<path fill="#fff" opacity="0.4" d="M3 0h18c0.552 0 1 0.448 1 1v22c0 0.552-0.448 1-1 1h-18c-0.552 0-1-0.448-1-1v-22c0-0.552 0.448-1 1-1z"></path>
<path fill="#7f8691" d="M3 1h18v22h-18v-22z"></path>
<path fill="#fff" opacity="0.6" d="M3 1h18v22h-18v-22z"></path>
<path fill="#b31b34" d="M9.931 16c-0.018-0.101-0.074-0.566-0.051-0.848 0.070-0.882 0.247-1.772 0.575-2.569 0.304-0.738 0.783-1.365 1.257-1.965 0.355-0.449 0.887-0.728 1.178-1.209 0.304-0.501 0.548-1.167 0.548-1.671 0-0.605-0.192-1.058-0.575-1.36-0.384-0.322-0.868-0.484-1.452-0.484s-1.151 0.101-1.699 0.302c-0.548 0.181-1.142 0.443-1.781 0.786l-0.932-2.592c0.639-0.443 1.388-0.786 2.247-1.028s1.708-0.363 2.548-0.363c1.041 0 1.9 0.161 2.575 0.484 0.676 0.302 1.205 0.685 1.589 1.149s0.648 0.978 0.795 1.542c0.164 0.544 0.247 1.068 0.247 1.572 0 0.584-0.11 1.119-0.329 1.602-0.201 0.484-0.466 0.937-0.795 1.36-0.311 0.423-0.699 0.781-1.014 1.209-0.574 0.783-1.225 1.534-1.586 2.478-0.19 0.497-0.277 1.18-0.277 1.604z"></path>
<path fill="#b31b34" d="M12.502 17.502c0.601 0.33 0.998 0.933 0.998 1.623 0 0.346-0.1 0.67-0.274 0.948l0.005-0.009c-0.352 0.564-0.995 0.936-1.731 0.936-0.369 0-0.714-0.094-1.011-0.257l0.009 0.005c-0.601-0.33-0.999-0.933-0.999-1.623 0-0.346 0.1-0.669 0.274-0.948l-0.005 0.009c0.352-0.564 0.995-0.936 1.731-0.936 0.369 0 0.714 0.094 1.011 0.257l-0.009-0.005z"></path>
</svg>
