<!-- Generated by IcoMoon.io -->
<svg version="1.1" xmlns="http://www.w3.org/2000/svg" width="24" height="24" viewBox="0 0 24 24">
<title>warning</title>
<path fill="#ffc61e" d="M12.665 1.413l10.238 20.352c0.131 0.263 0.131 0.563 0 0.823-0.133 0.263-0.357 0.413-0.621 0.413h-20.473c-0.265 0-0.49-0.15-0.623-0.413-0.131-0.26-0.131-0.56 0-0.823l10.238-20.352c0.131-0.263 0.357-0.413 0.621-0.413s0.49 0.15 0.621 0.413z"></path>
<path fill="#0d2c56" d="M12.75 17h-1.5l-0.25-8h2z"></path>
<path fill="#0d2c56" d="M12.501 18.668c0.301 0.22 0.499 0.622 0.499 1.082 0 0.231-0.050 0.446-0.137 0.632l0.003-0.006c-0.176 0.376-0.498 0.624-0.866 0.624-0.184 0-0.357-0.062-0.505-0.171l0.005 0.003c-0.301-0.22-0.499-0.622-0.499-1.082 0-0.23 0.050-0.446 0.137-0.632l-0.003 0.006c0.176-0.376 0.498-0.624 0.866-0.624 0.184 0 0.357 0.062 0.505 0.171l-0.005-0.003z"></path>
</svg>
