<!-- Generated by IcoMoon.io -->
<svg version="1.1" xmlns="http://www.w3.org/2000/svg" width="24" height="24" viewBox="0 0 24 24">
<title>word</title>
<path fill="#0d2c56" d="M2 1v22c0 0.5 0.5 1 1 1h18c0.494 0 1-0.5 1-1v-16l-7-7h-11.919c-0.581 0-1.080 0.5-1.080 1z"></path>
<path fill="#fff" d="M3 1v22h18v-17l-5-5z"></path>
<path fill="#0d2c56" d="M15 0v6c0 0.5 0.5 1 1 1h6z"></path>
<path fill="#fff" opacity="0.4" d="M2 1v22c0 0.5 0.5 1 1 1h18c0.494 0 1-0.5 1-1v-16l-7-7h-11.919c-0.581 0-1.080 0.5-1.080 1z"></path>
<path fill="#0d2c56" d="M4 8h16v14h-16v-14z"></path>
<path fill="#fff" d="M7.883 20l-2.883-10h1.475l2.142 7.31 2.379-7.31h1.882l2.379 7.31 2.142-7.31h1.475l-2.883 10h-1.467l-2.586-8.069-2.586 8.069z"></path>
</svg>
