<!-- Generated by IcoMoon.io -->
<svg version="1.1" xmlns="http://www.w3.org/2000/svg" width="16" height="16" viewBox="0 0 16 16">
<title>lock-other</title>
<path fill="#000" d="M5.5 1c-1.662 0-3 1.338-3 3v3h-1.5v5.5c0 1.385 1.115 2.5 2.5 2.5h5c1.385 0 2.5-1.115 2.5-2.5v-5.5h-1.5v-3c0-1.662-1.338-3-3-3h-1zM5.5 2.5h1c0.831 0 1.5 0.669 1.5 1.5v3h-4v-3c0-0.831 0.669-1.5 1.5-1.5z"></path>
<path fill="#fff" d="M5.93 8.502c-0.525 0.025-0.976 0.316-1.225 0.74-0.131 0.222-0.205 0.482-0.205 0.758 0 0.552 0.298 1.034 0.742 1.295 0.078 0.046 0.161 0.084 0.248 0.115l0.010 1.59c0 0.277 0.223 0.5 0.5 0.5s0.5-0.223 0.5-0.5v-1.586c0.342-0.123 0.619-0.356 0.795-0.656 0.131-0.222 0.205-0.482 0.205-0.758 0-0.552-0.298-1.034-0.742-1.294l-0.007-0.004c-0.215-0.127-0.474-0.201-0.751-0.201-0.025 0-0.049 0.001-0.073 0.002z"></path>
</svg>
