<!-- Generated by IcoMoon.io -->
<svg version="1.1" xmlns="http://www.w3.org/2000/svg" width="16" height="16" viewBox="0 0 16 16">
<title>lock-publish</title>
<path fill="#fff" d="M11.513 1.941c2.064 1.234 3.428 3.484 3.428 6.058 0 1.291-0.343 2.5-0.94 3.538-1.192 2.071-3.4 3.461-5.926 3.461-1.266 0-2.452-0.349-3.47-0.958-2.032-1.216-3.396-3.466-3.396-6.041 0-1.29 0.343-2.499 0.94-3.537 1.192-2.072 3.4-3.462 5.926-3.462 1.266 0 2.451 0.349 3.469 0.958z"></path>
<path fill="#b31b34" d="M7.979 1c-2.677 0-4.888 1.517-6.039 3.779l-1.44-0.645 0.015 5.633 4.674-3.535-1.367-0.612c0.829-1.541 2.306-2.622 4.157-2.622 2.695 0 5.021 2.266 5.021 5s-2.326 5-5.021 5c-1.682 0-3.042-0.926-3.922-2.241l-1.517 1.413c1.263 1.712 3.174 2.827 5.439 2.827 3.817 0 7.021-3.128 7.021-7s-3.203-7-7.021-7zM8 4.5c-0.27 0-0.502 0.226-0.5 0.5l0.022 2.965c0 0.065 0.018 0.24 0.059 0.352 0.044 0.118 0.149 0.277 0.194 0.322l1.828 1.768c0.19 0.193 0.494 0.24 0.685 0.047s0.175-0.503-0.017-0.697l-1.772-1.758v-3c0-0.273-0.23-0.5-0.5-0.5z"></path>
</svg>
