<!-- Generated by IcoMoon.io -->
<svg version="1.1" xmlns="http://www.w3.org/2000/svg" width="32" height="32" viewBox="0 0 32 32">
<title>context-menu</title>
<path fill="#444" d="M3.981 23h24.038c1.094 0 1.981 0.887 1.981 1.981v3.038c0 1.094-0.887 1.981-1.981 1.981h-24.038c-1.094 0-1.981-0.887-1.981-1.981v-3.038c0-1.094 0.887-1.981 1.981-1.981z"></path>
<path fill="#444" d="M3.937 13h24.126c1.070 0 1.937 0.867 1.937 1.937v3.126c0 1.070-0.867 1.937-1.937 1.937h-24.126c-1.070 0-1.937-0.867-1.937-1.937v-3.126c0-1.070 0.867-1.937 1.937-1.937z"></path>
<path fill="#444" d="M3.981 3h24.038c1.094 0 1.981 0.887 1.981 1.981v3.038c0 1.094-0.887 1.981-1.981 1.981h-24.038c-1.094 0-1.981-0.887-1.981-1.981v-3.038c0-1.094 0.887-1.981 1.981-1.981z"></path>
</svg>
