<!-- Generated by IcoMoon.io -->
<svg version="1.1" xmlns="http://www.w3.org/2000/svg" width="32" height="32" viewBox="0 0 32 32">
<title>circle-help</title>
<path fill="#444" d="M16.379 0.036c-0.058-0.002-0.203-0.003-0.379-0.003-0.239 0.001-0.535 0.005-0.752 0.015-5.441 0.253-10.371 3.226-13.098 7.942-1.477 2.554-2.145 5.259-2.127 8.010 0.035 5.489 2.872 10.903 7.967 13.85 2.533 1.465 5.301 2.131 8.031 2.125 5.512-0.012 10.87-2.848 13.829-7.963 1.479-2.556 2.144-5.258 2.125-8.012-0.037-5.486-2.869-10.902-7.962-13.849l-0.004-0.003c-2.321-1.342-4.95-2.048-7.63-2.113zM16 4.024c1.806 0 3.609 0.386 5.141 1.304s2.835 2.611 2.835 4.672c0 2.659-1.621 4.357-2.579 5.397l-2.397 2.603c-1 1-1 2-1.024 3h-3.952v-2c-0.024-1 0.833-2.639 1.579-3.397l3-3c1-1 1.48-1.616 1.421-2.603-0.031-0.524-0.479-0.989-0.915-1.282-0.884-0.595-1.915-0.742-3.109-0.742-2.122 0-3.468 1.379-4.233 2.908l-3.535-1.768c1.236-2.471 3.889-5.092 7.767-5.092zM15.869 23.183c0.54-0.025 1.075 0.105 1.543 0.376l0.001 0c1.348 0.78 1.809 2.505 1.029 3.854s-2.505 1.809-3.854 1.029c-1.348-0.78-1.809-2.505-1.029-3.853 0.481-0.831 1.351-1.361 2.31-1.406z"></path>
</svg>
