<!-- Generated by IcoMoon.io -->
<svg version="1.1" xmlns="http://www.w3.org/2000/svg" width="32" height="32" viewBox="0 0 32 32">
<title>database2</title>
<path fill="#444" d="M31.972 6.685c0-0.886-0.314-1.874-1.811-3.135-0.889-0.749-2.108-1.402-3.621-1.941-2.857-1.018-6.614-1.578-10.58-1.578s-7.723 0.56-10.58 1.578c-1.513 0.539-2.731 1.192-3.621 1.941-1.497 1.261-1.759 2.249-1.759 3.135v18.629c0 0.886 0.262 1.874 1.759 3.135 0.889 0.749 2.108 1.402 3.621 1.941 2.857 1.018 6.64 1.578 10.606 1.578s7.697-0.56 10.554-1.578c1.513-0.539 2.731-1.192 3.621-1.941 1.497-1.261 1.811-2.249 1.811-3.135zM7.178 5.216c2.386-0.769 5.504-1.192 8.782-1.192s6.397 0.423 8.782 1.192c2.332 0.752 3.111 1.227 3.233 1.469-0.122 0.242-0.902 1.383-3.233 2.134-2.385 0.769-5.504 1.192-8.782 1.192s-6.397-0.423-8.782-1.192c-2.332-0.752-3.059-1.892-3.181-2.134 0.122-0.242 0.85-0.718 3.181-1.469zM24.742 26.784c-2.386 0.769-5.504 1.192-8.782 1.192s-6.397-0.423-8.782-1.192c-2.332-0.751-3.059-1.227-3.181-1.469v-5.657c0.441 0.206 0.875 0.57 1.383 0.751 2.857 1.017 6.614 1.578 10.58 1.578s7.723-0.56 10.58-1.578c0.506-0.18 0.996-0.546 1.435-0.751v5.657c-0.122 0.242-0.902 0.718-3.233 1.469zM24.742 17.802c-2.386 0.769-5.504 1.192-8.782 1.192s-6.397-0.423-8.782-1.192c-2.332-0.752-3.099-1.559-3.221-1.802l0.040-5.325c0.441 0.206 0.875 0.57 1.383 0.751 2.857 1.017 6.614 1.578 10.58 1.578s7.723-0.56 10.58-1.578c0.506-0.18 0.979-0.546 1.418-0.751v5.325c-0.122 0.242-0.884 1.050-3.216 1.802z"></path>
</svg>
