<!-- Generated by IcoMoon.io -->
<svg version="1.1" xmlns="http://www.w3.org/2000/svg" width="32" height="32" viewBox="0 0 32 32">
<title>edit-point</title>
<path fill="#444" d="M15.303 1.016c-5.327 0.255-9.901 3.253-12.364 7.602-1.191 2.026-1.939 4.616-1.939 7.382 0 5.519 2.98 10.341 7.419 12.946 2.225 1.305 4.815 2.054 7.581 2.054 5.518 0 10.34-2.98 12.945-7.418 1.306-2.225 2.054-4.816 2.054-7.582 0-5.518-2.979-10.34-7.417-12.945l-0.075-0.041c-2.153-1.266-4.744-2.014-7.508-2.014-0.245 0-0.489 0.006-0.731 0.018zM15.535 6.011c0.139-0.007 0.301-0.011 0.464-0.011 1.843 0 3.57 0.499 5.053 1.369l-0.044-0.024c3.005 1.762 4.992 4.977 4.992 8.655 0 1.844-0.499 3.572-1.37 5.055-1.737 2.959-4.951 4.945-8.63 4.945-1.844 0-3.571-0.499-5.054-1.369-2.959-1.737-4.946-4.952-4.946-8.631 0-1.843 0.499-3.57 1.369-5.053 1.685-2.872 4.763-4.828 8.306-4.941z"></path>
<path fill="#444" d="M18.504 11.672c1.503 0.881 2.496 2.488 2.496 4.328 0 0.922-0.25 1.786-0.685 2.527-0.868 1.479-2.476 2.473-4.315 2.473-0.922 0-1.786-0.25-2.527-0.685-1.48-0.868-2.473-2.476-2.473-4.315 0-0.922 0.249-1.785 0.684-2.527 0.868-1.48 2.476-2.473 4.316-2.473 0.922 0 1.785 0.249 2.526 0.684z"></path>
</svg>
