<!-- Generated by IcoMoon.io -->
<svg version="1.1" xmlns="http://www.w3.org/2000/svg" width="32" height="32" viewBox="0 0 32 32">
<title>file-inv</title>
<path fill="#444" d="M3 0c-0.55 0-1 0.559-1 1v30c0 0.5 0.5 1 1 1h26c0.5 0 1-0.5 1-1v-19h-10c-1 0-2-1-2-2v-10zM8.553 16h14.895c0.306 0 0.552 0.246 0.552 0.552v0.895c0 0.306-0.246 0.552-0.552 0.552h-14.895c-0.306 0-0.553-0.246-0.553-0.552v-0.895c0-0.306 0.246-0.553 0.553-0.553zM8.553 20h14.895c0.306 0 0.552 0.246 0.552 0.552v0.895c0 0.306-0.246 0.552-0.552 0.552h-14.895c-0.306 0-0.553-0.246-0.553-0.552v-0.895c0-0.306 0.246-0.552 0.553-0.552zM8.553 24h14.895c0.306 0 0.552 0.246 0.552 0.552v0.895c0 0.306-0.246 0.552-0.552 0.552h-14.895c-0.306 0-0.553-0.246-0.553-0.552v-0.895c0-0.306 0.246-0.552 0.553-0.552z"></path>
<path fill="#444" d="M20 0v9c0 0.643 0.5 1 1 1h9z"></path>
</svg>
