<!-- Generated by IcoMoon.io -->
<svg version="1.1" xmlns="http://www.w3.org/2000/svg" width="32" height="32" viewBox="0 0 32 32">
<title>folder2</title>
<path fill="#444" d="M14 6l-4-4h-8c-1 0-2 1-2 2v24c0 1 1 2 2 2h28c1 0 2-1 2-2v-20c0-1-1-2-2-2zM29 27h-26v-17h26z"></path>
<path fill="#444" d="M1 10.25h30v0.25h-30v-0.25z"></path>
<path fill="#444" d="M1 10.75h30v0.25h-30v-0.25z"></path>
<path fill="#444" d="M1 11.25h30v0.25h-30v-0.25z"></path>
<path fill="#444" d="M1 11.75h30v0.25h-30v-0.25z"></path>
<path fill="#444" d="M1 12.25h30v0.25h-30v-0.25z"></path>
<path fill="#444" d="M1 12.75h30v0.25h-30v-0.25z"></path>
<path fill="#444" d="M1 13.25h30v0.25h-30v-0.25z"></path>
<path fill="#444" d="M1 13.75h30v0.25h-30v-0.25z"></path>
<path fill="#444" d="M1 14.25h30v0.25h-30v-0.25z"></path>
<path fill="#444" d="M1 14.75h30v0.25h-30v-0.25z"></path>
<path fill="#444" d="M1 15.25h30v0.25h-30v-0.25z"></path>
<path fill="#444" d="M1 15.75h30v0.25h-30v-0.25z"></path>
<path fill="#444" d="M1 16.25h30v0.25h-30v-0.25z"></path>
<path fill="#444" d="M1 16.75h30v0.25h-30v-0.25z"></path>
<path fill="#444" d="M1 17.25h30v0.25h-30v-0.25z"></path>
<path fill="#444" d="M1 17.75h30v0.25h-30v-0.25z"></path>
<path fill="#444" d="M1 18.25h30v0.25h-30v-0.25z"></path>
<path fill="#444" d="M1 18.75h30v0.25h-30v-0.25z"></path>
<path fill="#444" d="M1 19.25h30v0.25h-30v-0.25z"></path>
<path fill="#444" d="M1 19.75h30v0.25h-30v-0.25z"></path>
<path fill="#444" d="M1 20.25h30v0.25h-30v-0.25z"></path>
<path fill="#444" d="M1 20.75h30v0.25h-30v-0.25z"></path>
<path fill="#444" d="M1 21.25h30v0.25h-30v-0.25z"></path>
<path fill="#444" d="M1 21.75h30v0.25h-30v-0.25z"></path>
<path fill="#444" d="M1 22.25h30v0.25h-30v-0.25z"></path>
<path fill="#444" d="M1 22.75h30v0.25h-30v-0.25z"></path>
<path fill="#444" d="M1 23.25h30v0.25h-30v-0.25z"></path>
<path fill="#444" d="M1 23.75h30v0.25h-30v-0.25z"></path>
<path fill="#444" d="M1 24.25h30v0.25h-30v-0.25z"></path>
<path fill="#444" d="M1 24.75h30v0.25h-30v-0.25z"></path>
<path fill="#444" d="M1 25.25h30v0.25h-30v-0.25z"></path>
<path fill="#444" d="M1 25.75h30v0.25h-30v-0.25z"></path>
<path fill="#444" d="M1 26.25h30v0.25h-30v-0.25z"></path>
<path fill="#444" d="M1 26.75h30v0.25h-30v-0.25z"></path>
</svg>
