<!-- Generated by IcoMoon.io -->
<svg version="1.1" xmlns="http://www.w3.org/2000/svg" width="32" height="32" viewBox="0 0 32 32">
<title>help</title>
<path fill="#444" d="M6 4v6h-2c-1 0-2 1-2 2v16c0 1 1 2 2 2h24c1 0 2-1 2-2v-16c0-1-1-2-2-2h-16zM15.998 12.014c2.652 0.011 6.002 0.986 6.002 3.986-0.022 2.099-1.411 2.793-2.994 3.949-0.691 0.505-1.422 1.312-1.472 2.104v0.978h-3.072v-1.097l0.002-0.043c0.035-1.391 1.255-3.022 2.535-3.891 1.42-0.964 2.122-1.065 2-2-0.156-1.198-2.319-0.967-3-1-1.491 0-2.717 0.379-3.431 2l-2.569-1c1.217-2.761 3.509-3.986 5.998-3.986zM16 24c1.078 0 2 0.922 2 2s-0.922 2-2 2c-1.078 0-2-0.922-2-2s0.922-2 2-2z"></path>
</svg>
