<!-- Generated by IcoMoon.io -->
<svg version="1.1" xmlns="http://www.w3.org/2000/svg" width="32" height="32" viewBox="0 0 32 32">
<title>list2</title>
<path fill="#444" d="M2 0l4 11-4 10 4 11h24l-4-11 4-10-4-11h-24zM4.855 2h19.744l2.909 8h-19.744l-2.909-8zM7.754 12h19.692l-0.1 0.25h-19.692l0.1-0.25zM7.554 12.5h19.692l-0.1 0.25h-19.692l0.1-0.25zM7.354 13h19.692l-0.1 0.25h-19.692l0.1-0.25zM7.154 13.5h19.692l-0.1 0.25h-19.692l0.1-0.25zM6.954 14h19.692l-0.1 0.25h-19.692l0.1-0.25zM6.754 14.5h19.692l-0.1 0.25h-19.692l0.1-0.25zM6.554 15h19.692l-0.1 0.25h-19.692l0.1-0.25zM6.354 15.5h19.692l-0.1 0.25h-19.692l0.1-0.25zM6.155 16h19.692l-0.1 0.25h-19.692l0.1-0.25zM5.955 16.5h19.692l-0.1 0.25h-19.692l0.1-0.25zM5.754 17h19.692l-0.1 0.25h-19.692l0.1-0.25zM5.554 17.5h19.692l-0.1 0.25h-19.692l0.1-0.25zM5.354 18h19.692l-0.1 0.25h-19.692l0.1-0.25zM5.154 18.5h19.692l-0.1 0.25h-19.692l0.1-0.25zM4.954 19h19.692l-0.1 0.25h-19.692l0.1-0.25zM4.754 19.5h19.692l-0.1 0.25h-19.692l0.1-0.25zM4.492 22h19.744l2.909 8h-19.744l-2.909-8z"></path>
</svg>
