<!-- Generated by IcoMoon.io -->
<svg version="1.1" xmlns="http://www.w3.org/2000/svg" width="32" height="32" viewBox="0 0 32 32">
<title>quicklaunch-editor</title>
<path fill="#444" d="M10.104 0.661c-1.525 1.461-2.845 3.147-3.818 4.996-1.963 4.009-1.8 9.044-1.286 13.344l-3.573 3c-0.492 0.609-1.441 1.016-1.427 1.875l1.872 6.606c0.255 0.545 0.127 1.49 0.9 1.596 0.697-0.1 1.648 0.281 2.077-0.416 0.612-1.936 1.59-3.706 2.15-5.66h8l1.569 4.493c0.266 0.585 0.378 1.49 1.266 1.51 0.67-0.066 1.612 0.362 1.999-0.357l1.728-6.149c0.118-0.773 0.722-1.583 0.274-2.335-1.567-1.507-3.27-2.654-4.837-4.162 0.232-2.737 0.545-5.869 0.109-8.596-0.503-3.958-2.753-7.509-5.687-10.249-0.165-0.168-0.439-0.193-0.652-0.107-0.226 0.199-0.448 0.403-0.666 0.612zM9 6c1.037-0.999 2.963-0.997 4 0s1.037 3.001 0 4c-1.037 0.999-2.963 0.997-4 0s-1.037-3.001 0-4z"></path>
<path fill="#444" d="M18 8l2 2 4-4 2 2c0 0-1 1 1 3l5 5v-6l-2-2c-2-2-3-1-3-1l-2-2c1.333-1.333 3.667-3.667 5-5h-6l-7 7z"></path>
</svg>
