<!-- Generated by IcoMoon.io -->
<svg version="1.1" xmlns="http://www.w3.org/2000/svg" width="32" height="32" viewBox="0 0 32 32">
<title>sphere</title>
<path fill="#444" d="M16 0c-8.837 0-16 7.163-16 16s7.163 16 16 16 16-7.163 16-16-7.163-16-16-16zM11 2.92v1.080l-5 5h-2.127c1.598-2.762 4.112-4.926 7.127-6.080zM16 20l-7.147 8.040c-0.291-0.173-0.576-0.357-0.853-0.55v-6.489l-4-3v-5c0-0.552 0.448-1 1-1h3c0 0 3 4 8 5v3zM28.099 15.336c-0.495-1.664-0.922-1.825-3.099-2.566v-0c-0.745-0.233-1.445-0.645-2.035-1.235-1.953-1.953-1.953-5.118 0-7.071 0.131-0.131 0.268-0.253 0.41-0.366 3.977 2.469 6.626 6.876 6.626 11.902 0 2.592-0.705 5.019-1.933 7.101 0.515-3.328 0.325-5.995 0.032-7.765z"></path>
</svg>
