<!-- Generated by IcoMoon.io -->
<svg version="1.1" xmlns="http://www.w3.org/2000/svg" width="36" height="32" viewBox="0 0 36 32">
<title>users</title>
<path fill="#444" d="M24 24.082v-1.649c2.203-1.241 4-4.337 4-7.432 0-4.971 0-9-6-9s-6 4.029-6 9c0 3.096 1.797 6.191 4 7.432v1.649c-6.784 0.555-12 3.888-12 7.918h28c0-4.030-5.216-7.364-12-7.918z"></path>
<path fill="#444" d="M6.484 19.25c-0.424 0.154-0.831 0.321-1.222 0.5h9.564c-0.077-0.165-0.15-0.332-0.218-0.5h-8.123z"></path>
<path fill="#444" d="M0.85 23.25c-0.105 0.164-0.201 0.331-0.288 0.5h11.669c0.383-0.178 0.779-0.344 1.186-0.5h-12.567z"></path>
<path fill="#444" d="M2.735 21.25c-0.21 0.162-0.409 0.329-0.597 0.5h13.865c-0.119-0.163-0.235-0.329-0.347-0.5h-12.921z"></path>
<path fill="#444" d="M10.521 18.25c-0.849 0.124-1.666 0.292-2.445 0.5h6.339c-0.059-0.166-0.115-0.332-0.166-0.5h-3.728z"></path>
<path fill="#444" d="M12 17.25v0.5h2.107c-0.043-0.166-0.082-0.333-0.117-0.5h-1.99z"></path>
<path fill="#444" d="M11.702 16.25c0.098 0.064 0.198 0.126 0.298 0.182v0.318h1.895c-0.027-0.166-0.050-0.333-0.069-0.5h-2.123z"></path>
<path fill="#444" d="M0.061 25.25c-0.027 0.165-0.044 0.332-0.053 0.5h9.003c0.205-0.171 0.419-0.337 0.641-0.5h-9.591z"></path>
<path fill="#444" d="M3.437 20.75h11.91c-0.049-0.084-0.097-0.168-0.144-0.253-0.045-0.082-0.088-0.164-0.131-0.247h-10.804c-0.289 0.16-0.566 0.327-0.831 0.5z"></path>
<path fill="#444" d="M8.011 7.25c-0.003 0.165-0.005 0.332-0.007 0.5h6.678c0.008-0.018 0.016-0.037 0.024-0.055 0.070-0.153 0.146-0.301 0.225-0.445h-6.92z"></path>
<path fill="#444" d="M0.337 24.25c-0.064 0.165-0.12 0.331-0.166 0.5h10.218c0.273-0.173 0.555-0.34 0.847-0.5h-10.899z"></path>
<path fill="#444" d="M9.286 1.75h9.427c-0.14-0.179-0.296-0.346-0.468-0.5h-8.489c-0.173 0.154-0.329 0.321-0.469 0.5z"></path>
<path fill="#444" d="M1.205 22.75h13.689c0.512-0.153 1.038-0.29 1.575-0.409-0.025-0.030-0.050-0.061-0.075-0.091h-14.762c-0.152 0.163-0.294 0.33-0.427 0.5z"></path>
<path fill="#444" d="M10.511 15.25c0.17 0.178 0.345 0.345 0.526 0.5h2.741c-0.012-0.167-0.019-0.333-0.023-0.5h-3.244z"></path>
<path fill="#444" d="M9.696 14.25c0.12 0.173 0.245 0.34 0.375 0.5h3.679c0-0.167 0-0.334 0.001-0.5h-4.055z"></path>
<path fill="#444" d="M8.511 3.25c-0.053 0.162-0.101 0.329-0.143 0.5h11.264c-0.043-0.171-0.091-0.338-0.144-0.5h-10.977z"></path>
<path fill="#444" d="M8.259 4.25c-0.031 0.163-0.058 0.33-0.082 0.5h9.251c0.359-0.195 0.744-0.362 1.155-0.5h-10.324z"></path>
<path fill="#444" d="M8.043 6.25c-0.008 0.165-0.015 0.331-0.020 0.5h7.211c0.116-0.174 0.24-0.341 0.371-0.5h-7.561z"></path>
<path fill="#444" d="M8.117 5.25c-0.017 0.164-0.031 0.331-0.044 0.5h7.989c0.184-0.179 0.379-0.345 0.585-0.5h-8.53z"></path>
<path fill="#444" d="M11.733 0.25c-0.486 0.124-0.909 0.292-1.277 0.5h7.088c-0.368-0.208-0.792-0.376-1.279-0.5h-4.532z"></path>
<path fill="#444" d="M9.088 13.25c0.090 0.171 0.184 0.337 0.283 0.5h4.383c0.002-0.168 0.004-0.334 0.007-0.5h-4.672z"></path>
<path fill="#444" d="M8.95 2.25c-0.092 0.16-0.175 0.326-0.25 0.5h10.6c-0.075-0.174-0.158-0.34-0.25-0.5h-10.1z"></path>
<path fill="#444" d="M8.304 11.25c0.045 0.168 0.095 0.335 0.149 0.5h5.365c0.011-0.168 0.024-0.335 0.039-0.5h-5.553z"></path>
<path fill="#444" d="M8.632 12.25c0.066 0.169 0.136 0.336 0.211 0.5h4.929c0.005-0.168 0.011-0.334 0.019-0.5h-5.159z"></path>
<path fill="#444" d="M8.001 8.25c-0.001 0.165-0.001 0.332-0.001 0.5h6.31c0.051-0.169 0.107-0.336 0.167-0.5h-6.476z"></path>
<path fill="#444" d="M8.005 9.25c0.005 0.167 0.016 0.334 0.031 0.5h6.029c0.033-0.169 0.070-0.335 0.11-0.5h-6.17z"></path>
<path fill="#444" d="M8.096 10.25c0.025 0.168 0.054 0.334 0.089 0.5h5.725c0.020-0.168 0.043-0.335 0.068-0.5h-5.881z"></path>
</svg>
