<!-- Generated by IcoMoon.io -->
<svg version="1.1" xmlns="http://www.w3.org/2000/svg" width="32" height="32" viewBox="0 0 32 32">
<title>wand</title>
<path fill="#444" d="M30.604 2.396c-0.927-0.928-1.976-1.395-2.604-1.395l-26 26c0 0.508 0.812 1.61 1.595 2.411s1.9 1.589 2.405 1.589l26-26c0-0.582-0.283-1.494-1.396-2.604zM23.778 10.973c-0.221-0.335-0.491-0.683-0.822-1.012-0.303-0.301-0.632-0.533-0.958-0.711l6.465-6.464c0.284 0.149 0.652 0.394 1.007 0.747 0.354 0.355 0.596 0.722 0.746 1.004z"></path>
<path fill="#444" d="M9.896 13.076l-3.398-2.544-3.401 2.536 1.527-3.816-3.625-2.252 4.342 0.186 1.16-3.928 1.156 3.931 4.342-0.176-3.627 2.244z"></path>
<path fill="#444" d="M18.551 7.039l-2.239-1.698-2.241 1.693 1.006-2.547-2.389-1.503 2.861 0.124 0.765-2.622 0.762 2.623 2.862-0.117-2.391 1.497z"></path>
</svg>
