<!-- Generated by IcoMoon.io -->
<svg version="1.1" xmlns="http://www.w3.org/2000/svg" width="16" height="16" viewBox="0 0 16 16">
<title>lock-shared</title>
<path fill="#000" d="M11 1c-1.662 0-3 1.338-3 3v3h-7v5.5c0 1.385 1.115 2.5 2.5 2.5h5c1.385 0 2.5-1.115 2.5-2.5v-5.5h-1.5v-3c0-0.831 0.669-1.5 1.5-1.5h1c0.831 0 1.5 0.669 1.5 1.5v3h1.5v-3c0-1.662-1.338-3-3-3h-1z"></path>
<path fill="#fff" d="M2.228 8h7.545c0.126 0 0.228 0.102 0.228 0.228v0.545c0 0.126-0.102 0.228-0.228 0.228h-7.545c-0.126 0-0.228-0.102-0.228-0.228v-0.545c0-0.126 0.102-0.228 0.228-0.228z"></path>
<path fill="#fff" d="M2.228 10h7.545c0.126 0 0.228 0.102 0.228 0.228v0.545c0 0.126-0.102 0.228-0.228 0.228h-7.545c-0.126 0-0.228-0.102-0.228-0.228v-0.545c0-0.126 0.102-0.228 0.228-0.228z"></path>
<path fill="#fff" d="M2.228 12h7.545c0.126 0 0.228 0.102 0.228 0.228v0.545c0 0.126-0.102 0.228-0.228 0.228h-7.545c-0.126 0-0.228-0.102-0.228-0.228v-0.545c0-0.126 0.102-0.228 0.228-0.228z"></path>
</svg>
