<!-- Generated by IcoMoon.io -->
<svg version="1.1" xmlns="http://www.w3.org/2000/svg" width="32" height="32" viewBox="0 0 32 32">
<title>publish</title>
<path d="M15.958 2c-5.355 0-9.777 3.034-12.077 7.558l-2.881-1.289 0.030 11.267 9.349-7.070-2.734-1.223c1.659-3.082 4.613-5.243 8.313-5.243 5.389 0 10.042 4.532 10.042 10 0 5.466-4.652 10-10.042 10-3.364 0-6.084-1.851-7.844-4.481l-3.035 2.827c2.527 3.425 6.347 5.655 10.879 5.655 7.635 0 14.042-6.256 14.042-14 0-7.745-6.407-14-14.042-14zM16 9c-0.54 0-1.004 0.452-1 1l0.043 5.93c0.001 0.129 0.036 0.48 0.119 0.703 0.087 0.235 0.298 0.555 0.388 0.645l3.656 3.537c0.381 0.386 0.988 0.481 1.37 0.095 0.381-0.388 0.349-1.005-0.033-1.394l-3.544-3.516v-6c0-0.546-0.46-1-1-1z"></path>
</svg>
